<?xml version="1.0" standalone="no"?>
<!DOCTYPE svg PUBLIC "-//W3C//DTD SVG 1.1//EN" "http://www.w3.org/Graphics/SVG/1.1/DTD/svg11.dtd" >
<svg xmlns="http://www.w3.org/2000/svg">
<metadata>
Created by FontForge 20120731 at Tue Jul 11 05:34:54 2017
 By admin
</metadata>
<defs>
<font id="iconfont" horiz-adv-x="1024" >
  <font-face 
    font-family="iconfont"
    font-weight="500"
    font-stretch="normal"
    units-per-em="1024"
    panose-1="2 0 6 3 0 0 0 0 0 0"
    ascent="896"
    descent="-128"
    x-height="792"
    bbox="-8 -208 2041 896.093"
    underline-thickness="0"
    underline-position="0"
    unicode-range="U+0078-E837"
  />
<missing-glyph 
 />
    <glyph glyph-name=".notdef" 
 />
    <glyph glyph-name=".notdef" 
 />
    <glyph glyph-name=".null" horiz-adv-x="0" 
 />
    <glyph glyph-name="nonmarkingreturn" horiz-adv-x="341" 
 />
    <glyph glyph-name="x" unicode="x" horiz-adv-x="1001" 
d="M281 543q-27 -1 -53 -1h-83q-18 0 -36.5 -6t-32.5 -18.5t-23 -32t-9 -45.5v-76h912v41q0 16 -0.5 30t-0.5 18q0 13 -5 29t-17 29.5t-31.5 22.5t-49.5 9h-133v-97h-438v97zM955 310v-52q0 -23 0.5 -52t0.5 -58t-10.5 -47.5t-26 -30t-33 -16t-31.5 -4.5q-14 -1 -29.5 -0.5
t-29.5 0.5h-32l-45 128h-439l-44 -128h-29h-34q-20 0 -45 1q-25 0 -41 9.5t-25.5 23t-13.5 29.5t-4 30v167h911zM163 247q-12 0 -21 -8.5t-9 -21.5t9 -21.5t21 -8.5q13 0 22 8.5t9 21.5t-9 21.5t-22 8.5zM316 123q-8 -26 -14 -48q-5 -19 -10.5 -37t-7.5 -25t-3 -15t1 -14.5
t9.5 -10.5t21.5 -4h37h67h81h80h64h36q23 0 34 12t2 38q-5 13 -9.5 30.5t-9.5 34.5q-5 19 -11 39h-368zM336 498v228q0 11 2.5 23t10 21.5t20.5 15.5t34 6h188q31 0 51.5 -14.5t20.5 -52.5v-227h-327z" />
    <glyph glyph-name="success" unicode="&#xe65b;" 
d="M512 830q-91 0 -173.5 -35.5t-142 -95t-95 -142t-35.5 -173.5t35.5 -173.5t95 -142t142 -95t173.5 -35.5t173.5 35.5t142 95t95 142t35.5 173.5t-35.5 173.5t-95 142t-142 95t-173.5 35.5zM727 458l-256 -259v-1v0q-2 -1 -7 -4q-1 -1 -2 -1.5t-2 -1.5q-6 -2 -12 -2t-12 2
q-1 1 -2 1.5t-1 1.5q-6 3 -7 4v1h-1l-126 129q-9 10 -9 23t9.5 22.5t23 9t22.5 -9.5l103 -106l234 236q9 9 22.5 9t22.5 -9t9.5 -22.5t-9.5 -22.5z" />
    <glyph glyph-name="error" unicode="&#xe65c;" 
d="M512 832q-185 0 -316.5 -131.5t-131.5 -316.5t131.5 -316.5t316.5 -131.5t316.5 131.5t131.5 316.5t-131.5 316.5t-316.5 131.5zM695 246q9 -9 9 -22.5t-9.5 -23t-22.5 -9.5t-23 10l-137 138l-138 -137q-10 -9 -23 -9t-22.5 9.5t-9.5 22.5t10 23l138 136l-138 138
q-9 9 -9 22.5t9.5 23t22.5 9.5t23 -10l137 -138l138 137q10 9 23 9t22.5 -9.5t9.5 -22.5t-10 -23l-138 -136z" />
    <glyph glyph-name="warning" unicode="&#xe662;" 
d="M943 127l-341 609q-35 63 -90.5 63t-90.5 -63l-340 -609q-34 -62 -6 -111q29 -48 100 -48h674q71 0 99.5 48.5t-5.5 110.5zM480 576q0 13 9.5 22.5t22.5 9.5t22.5 -9.5t9.5 -22.5v-288q0 -13 -9.5 -22.5t-22.5 -9.5t-22.5 9.5t-9.5 22.5v288zM512 64q-20 0 -34 14t-14 34
t14 34t34 14t34 -14t14 -34t-14 -34t-34 -14z" />
    <glyph glyph-name="question" unicode="&#xe690;" 
d="M512 832q-185 0 -316.5 -131.5t-131.5 -316.5t131.5 -316.5t316.5 -131.5t316.5 131.5t131.5 316.5t-131.5 316.5t-316.5 131.5zM512 64q-20 0 -34 14t-14 34t14 34t34 14t34 -14t14 -34t-14 -34t-34 -14zM601 391q-19 -19 -28.5 -29t-19 -26t-9.5 -28v-54
q0 -13 -9.5 -22.5t-22.5 -9.5t-22.5 9.5t-9.5 22.5v54q0 25 13 50t25.5 39.5t36.5 38.5q18 17 26.5 26.5t17.5 23.5t9 24q0 40 -28 68.5t-68 28.5t-68 -27.5t-28 -67.5q0 -13 -9.5 -22.5t-22.5 -9.5t-22.5 9.5t-9.5 22.5q0 66 47 112.5t113 46.5t113 -47t47 -114
q0 -22 -12 -45.5t-24 -37t-35 -36.5z" />
    <glyph glyph-name="info" unicode="&#xe6e4;" 
d="M512 830q-91 0 -173.5 -35.5t-142 -95t-95 -142t-35.5 -173.5t35.5 -173.5t95 -142t142 -95t173.5 -35.5t173.5 35.5t142 95t95 142t35.5 173.5t-35.5 173.5t-95 142t-142 95t-173.5 35.5zM544 160q0 -13 -9.5 -22.5t-22.5 -9.5t-22.5 9.5t-9.5 22.5v288q0 13 9.5 22.5
t22.5 9.5t22.5 -9.5t9.5 -22.5v-288zM512 544q-20 0 -34 14t-14 34t14 34t34 14t34 -14t14 -34t-14 -34t-34 -14z" />
    <glyph glyph-name="shijian" unicode="&#xe61a;" 
d="M230 275h79v-27h-79v27v0zM514 300q11 0 21 -5q38 46 82 79q11 -11 23 -22q-34 -50 -79 -90q1 -5 1 -10q0 -19 -14 -33t-33.5 -14t-33.5 14t-14 33q0 15 8 27q-53 72 -89 153q4 3 12 7t11 6q55 -73 91 -147q7 2 14 2v0zM446 559v-81l224 128l-223 130l-1 -83
q-129 -19 -221 -112q-56 -56 -86 -128.5t-30 -152t30 -152t86 -128.5t128.5 -86t151.5 -30t151.5 30t128.5 86q68 68 97 159l5 14l-89 27l-4 -14q-23 -69 -74 -120q-89 -89 -215 -89t-215 89t-89 214.5t89 214.5q66 66 156 84v0zM805 306q-4 29 -14 57l-5 14l87 32l5 -14
q14 -40 20 -82l2 -16l-93 -4l-2 13v0zM804 205q5 27 5 56v5l-1 14l93 4v-15v-8q0 -41 -8 -80l-3 -15l-89 26l3 13v0zM775 400q-12 24 -29 45l-8 11l73 58l9 -12q23 -31 41 -66l7 -15l-87 -32l-6 11v0zM729 466l-9 9q-21 21 -44 37l-13 9l58 73l11 -8q28 -20 53 -45l6 -6
l11 -12l-73 -57v0zM505 -9v79h27v-79h-27v0zM704 70l-56 55l20 20l55 -56l-19 -19v0zM309 76l56 56l19 -19l-56 -56l-19 19v0zM315 471l56 -55l-19 -20l-56 56l19 19v0zM711 465l-20 19l-55 -56l19 -19l56 56v0zM789 266h-79v27h79v-27z" />
    <glyph glyph-name="cai" unicode="&#xe62e;" 
d="M897 509q0 -12 -9 -21t-22 -9h-708q-12 0 -21 9t-9 21v31q0 13 9 22t21 9h708q13 0 22 -9t9 -22v-31zM897 61q0 -12 -9 -21t-22 -9h-708q-12 0 -21 9t-9 21v31q0 13 9 22t21 9h708q13 0 22 -9t9 -22v-31zM897 282q0 -13 -9 -22t-22 -9h-708q-12 0 -21 9t-9 22v31
q0 13 9 22t21 9h708q13 0 22 -9t9 -22v-31z" />
    <glyph glyph-name="rili" unicode="&#xe628;" 
d="M635 386h91v-91h-91v91zM635 274h91v-91h-91v91zM701 600q0 11 -8 19t-19 8h-4q-11 0 -19 -8t-8 -19v-50h58v50zM524 388h91v-91h-91v91zM389 600q0 11 -8 19t-19 8h-4q-11 0 -19 -8t-8 -19v-50h58v50zM413 387h91v-91h-91v91zM300 161h90v-91h-90v91zM302 273h91v-91
h-91v91zM744 550h-43v-57q0 -10 -8 -18t-19 -8h-4q-11 0 -19 8t-8 18v57h-254v-57q0 -10 -8 -18t-19 -8h-4q-11 0 -19 8t-8 18v57h-47q-21 0 -36.5 -15.5t-15.5 -36.5v-460q0 -22 15.5 -37t36.5 -15h344l168 170v342q0 21 -15.5 36.5t-36.5 15.5zM771 154h-102
q-21 1 -33.5 -12t-12.5 -35l1 -96h-341q-11 0 -19 6.5t-8 17.5v410h515v-291zM413 275h91v-90h-91v90zM302 384h91v-91h-91v91zM524 277h91v-91h-91v91zM411 163h90v-91h-90v91z" />
    <glyph glyph-name="safe" unicode="&#xe612;" 
d="M375 362q0 17 -12 29t-29.5 12t-29.5 -12t-12 -29q0 -26 24 -37v-58h35v58q24 11 24 37zM787 704h-550q-69 0 -118 -50.5t-49 -121.5v-660h108q0 3 1 7t6 14t13 18t25.5 14.5t40.5 6.5h495q24 0 41.5 -6t25.5 -15t13 -18t6 -15l1 -6h108v660q0 71 -49 121.5t-118 50.5z
M237 4q-41 0 -69.5 29.5t-28.5 70.5v428q0 41 28.5 70.5t69.5 29.5h550q41 0 69.5 -29.5t28.5 -70.5v-428q0 -41 -28.5 -70.5t-69.5 -29.5h-550zM843 492v40q0 23 -16.5 40t-39.5 17h-550q-23 0 -39.5 -17t-16.5 -40v-428q0 -23 16.5 -40t39.5 -17h550q23 0 39.5 17t16.5 40
v26q-18 1 -30 9t-12 18.5t12 18.5t30 9v252q-18 1 -30 9t-12 18.5t12 18.5t30 9zM333.5 224q-48.5 0 -83 34t-34.5 83t34.5 83.5t83 34.5t83 -34.5t34.5 -83.5t-34.5 -83t-83 -34zM546 457q12 0 20.5 -8t8.5 -20t-8.5 -20.5t-20.5 -8.5t-20.5 8.5t-8.5 20.5t8.5 20t20.5 8z
M547 228q-12 0 -20.5 8.5t-8.5 20.5t8.5 20.5t20.5 8.5t20 -8.5t8 -20.5t-8 -20.5t-20 -8.5zM547 320q-12 0 -20.5 8.5t-8.5 20.5t8.5 20.5t20.5 8.5t20 -8.5t8 -20.5t-8 -20.5t-20 -8.5zM646 457q12 0 20.5 -8t8.5 -20t-8.5 -20.5t-20.5 -8.5t-20.5 8.5t-8.5 20.5t8.5 20
t20.5 8zM647 228q-12 0 -20.5 8.5t-8.5 20.5t8.5 20.5t20.5 8.5t20.5 -8.5t8.5 -20.5t-8.5 -20.5t-20.5 -8.5zM647 320q-12 0 -20.5 8.5t-8.5 20.5t8.5 20.5t20.5 8.5t20.5 -8.5t8.5 -20.5t-8.5 -20.5t-20.5 -8.5zM744 457q12 0 20.5 -8t8.5 -20t-8.5 -20.5t-20.5 -8.5
t-20.5 8.5t-8.5 20.5t8.5 20t20.5 8zM745 228q-12 0 -20.5 8.5t-8.5 20.5t8.5 20.5t20.5 8.5t20.5 -8.5t8.5 -20.5t-8.5 -20.5t-20.5 -8.5zM745 320q-12 0 -20.5 8.5t-8.5 20.5t8.5 20.5t20.5 8.5t20.5 -8.5t8.5 -20.5t-8.5 -20.5t-20.5 -8.5z" />
    <glyph glyph-name="logout" unicode="&#xe656;" 
d="M512 -208q-96 0 -183 37.5t-150 100.5t-100.5 150t-37.5 183q0 103 43 196t121 161l31 -37q-70 -60 -108 -144t-38 -176q0 -115 56.5 -212t153.5 -154t212 -57t212 57t153.5 154t56.5 212q0 90 -37 173t-105 143l32 36q76 -67 117.5 -159t41.5 -193q0 -96 -37.5 -183
t-100.5 -150t-150 -100.5t-183 -37.5zM486 809h50v-593h-50v593z" />
    <glyph glyph-name="jsk3" unicode="&#xe623;" 
d="M498 -31q0 8 4 14t10 6h43q9 9 32.5 33t33.5 34.5t26 28.5t26 32t18 28q11 39 -12 60.5t-52 16.5v24l54 93q-14 -5 -46.5 -18.5t-53 -21t-22.5 -5.5q-2 52 37 65l172 70l-93 -166q61 21 84 -7q29 -43 -3 -107q-15 -30 -68 -76.5t-130 -83.5h264q4 0 8 -3q61 62 95 143
t34 171q0 91 -35 173.5t-95 142t-142.5 95t-173.5 35.5t-173.5 -35.5t-142.5 -95t-95 -142t-35 -173.5q0 -119 57.5 -220t156.5 -161.5t217 -64.5v115zM546 481l-29 -41h-70l90 129h69q61 -14 63 -44q1 -24 -38 -38q-35 -11 -85 -6zM573 573h-42l-78 -113h-22l90 129h68z
M572 611l-15 -17h-42l-80 -114h-21l90 131h68zM466 569l-21 -32q-34 5 -44 -10q-8 -13 19 -22q1 0 2 -1l-16 -23q-59 5 -63 34q-3 25 37 42q36 16 86 12zM275 130q-37 -1 -48 16q-13 25 11 105q-2 5 -11 8t-16 3q-1 -3 -1.5 -9t-2 -10.5t-5.5 -6.5q-3 0 -5 5.5t-4 14
t-3 11.5q-13 8 -15.5 18.5t4.5 17t17 4.5q-2 25 -1.5 53.5t3.5 29.5q64 -2 27 -94l18 -8q34 105 68 108q-3 -10 -9.5 -30t-10 -32.5t-7 -29.5t-3.5 -30q25 -9 35.5 -17.5t3.5 -16.5q-3 -5 -21 2t-22 4q-5 -15 -3.5 -46t4 -48.5t-2.5 -21.5v0zM419 -8q-14 -3 -29.5 24
t-20 56.5t4.5 47.5q17 5 30.5 -11.5t20 -39.5t5.5 -46t-11 -31zM453 126q-16 1 -53 18t-46 12q-3 -31 -16.5 -69.5t-28.5 -55.5q-13 33 12 138q-2 5 -7 7t-12.5 3.5t-10.5 3.5q-11 43 0 49q6 2 23 -7t19 -8q2 -1 4 5q5 21 0 38q-1 2 -2 2q-35 12 -30 42q5 3 18.5 -5t17.5 -6
q3 6 4.5 19t-2.5 16q-23 6 -22 18q5 5 28 0t34 -17q6 -22 -7 -51q31 -11 46 -25q1 -10 0 -17t-4.5 -24t-4.5 -24q-1 -5 4 -8t16 -6.5t18 -8.5q8 -8 2 -39zM188 511l298 -152l351 172l-337 -195l-10 -398l-12 397zM821 -8h-312q-6 0 -10.5 -6t-4.5 -14v-118q0 -8 4.5 -14
t10.5 -6h312q6 0 10 6t4 14v118q0 8 -4 14t-10 6zM668 -37h27v11h17v-11h33v11h17v-11h28v-15h-28v-10h-17v10h-33v-10h-17v10h-27v15zM554 -26q13 -10 23 -18l-12 -13q-10 9 -22 19zM550 -59q13 -9 24 -18l-12 -14q-10 9 -23 20l11 12v0zM559 -149l-17 6q8 26 13 47
q9 -4 17 -6q-5 -18 -13 -47zM663 -143h-90v17h36v75h-28v17h77v-17h-30v-75h35v-17zM684 -90l14 -7q-9 -15 -19 -26l-12 9q9 11 17 24zM777 -126q-5 15 -11 29q0 -25 -2 -32t-7.5 -12.5t-20.5 -5.5h-16q-1 10 -3 18q10 -1 18 -1q6 0 9 2.5t4 7.5t1 34h-21q-5 -40 -40 -63
q-7 8 -13 14q32 18 36 49h-35v15h36q1 6 1 12h16v-12h38v-21l11 5q8 -15 14 -33z" />
    <glyph glyph-name="ahk3" unicode="&#xe624;" 
d="M498 -31q0 8 4 14t10 6h43q9 9 32.5 33t33.5 34.5t26 28.5t26 32t18 28q11 39 -12 60.5t-52 16.5v24l54 93q-14 -5 -46.5 -18.5t-53 -21t-22.5 -5.5q-2 52 37 65l172 70l-93 -166q61 21 84 -7q29 -43 -3 -107q-15 -30 -68 -76.5t-130 -83.5h264q4 0 8 -3q61 62 95 143
t34 171q0 91 -35 173.5t-95 142t-142.5 95t-173.5 35.5t-173.5 -35.5t-142.5 -95t-95 -142t-35 -173.5q0 -119 57.5 -220t156.5 -161.5t217 -64.5v115zM546 481l-29 -41h-70l90 129h69q61 -14 63 -44q1 -24 -38 -38q-35 -11 -85 -6zM573 573h-42l-78 -113h-22l90 129h68z
M572 611l-15 -17h-42l-80 -114h-21l90 131h68zM466 569l-21 -32q-34 5 -44 -10q-8 -13 19 -22q1 0 2 -1l-16 -23q-59 5 -63 34q-3 25 37 42q36 16 86 12zM275 130q-37 -1 -48 16q-13 25 11 105q-2 5 -11 8t-16 3q-1 -3 -1.5 -9t-2 -10.5t-5.5 -6.5q-3 0 -5 5.5t-4 14
t-3 11.5q-13 8 -15.5 18.5t4.5 17t17 4.5q-2 25 -1.5 53.5t3.5 29.5q64 -2 27 -94l18 -8q34 105 68 108q-3 -10 -9.5 -30t-10 -32.5t-7 -29.5t-3.5 -30q25 -9 35.5 -17.5t3.5 -16.5q-3 -5 -21 2t-22 4q-5 -15 -3.5 -46t4 -48.5t-2.5 -21.5v0zM419 -8q-14 -3 -29.5 24
t-20 56.5t4.5 47.5q17 5 30.5 -11.5t20 -39.5t5.5 -46t-11 -31zM453 126q-16 1 -53 18t-46 12q-3 -31 -16.5 -69.5t-28.5 -55.5q-13 33 12 138q-2 5 -7 7t-12.5 3.5t-10.5 3.5q-11 43 0 49q6 2 23 -7t19 -8q2 -1 4 5q5 21 0 38q-1 2 -2 2q-35 12 -30 42q5 3 18.5 -5t17.5 -6
q3 6 4.5 19t-2.5 16q-23 6 -22 18q5 5 28 0t34 -17q6 -22 -7 -51q31 -11 46 -25q1 -10 0 -17t-4.5 -24t-4.5 -24q-1 -5 4 -8t16 -6.5t18 -8.5q8 -8 2 -39zM188 511l298 -152l351 172l-337 -195l-10 -398l-12 397zM582 -105l24 -9q10 8 15 22h-31q-4 -7 -8 -13zM715 -123
q-4 -7 -8 -13q7 -1 8 -1q3 0 3 4v15l-11 -1zM822 -10h-312q-6 0 -10.5 -6t-4.5 -15v-117q0 -9 4.5 -15t10.5 -6h312q6 0 10 6t4 15v117q0 9 -4 15t-10 6zM700 -35h11v-15h6v23h13v-23h6v15h11v-26h-47v26zM545 -40h48q-2 4 -3 9l20 4l5 -13h44v-28h-18v12h-78v-11h-18v27v0z
M664 -92h-23q-6 -18 -17 -29l36 -13l-9 -17l-42 19q-21 -12 -60 -18q-5 10 -9 16q30 4 48 11q-17 6 -30 11q6 9 12 20h-30v15h38q4 9 8 19l20 -5l-7 -14h65v-15zM687 -27l13 -9q-11 -21 -27 -39q-2 8 -5 18q12 13 19 30v0zM693 -150h-14v43q-4 -5 -8 -9l-3 19q11 13 22 35
l12 -8q-4 -8 -9 -16v-64zM731 -136q0 -6 -2.5 -9t-20.5 -3q0 4 -2 11q-1 -2 -3 -4q-4 3 -8 5q6 8 11 17q-4 0 -7 -1l-4 11q6 1 19 10q-9 -1 -14 -2l-5 11q5 1 9 3.5t10 8.5h-12v12h40v-12h-11l-19 -14q6 0 12 1q7 5 14 11l8 -8q-15 -11 -31 -21l23 1l-5 7l9 6q6 -8 13 -18
l-9 -7l-2 4l-13 -1v-19zM784 -150q-9 8 -16 18q-7 -10 -16 -19q-3 7 -6 13l-4 -3q-5 11 -10 19l8 4q4 -6 9 -12q6 6 11 14q-5 15 -7 33q-2 -3 -4 -5q-2 5 -6 14q9 17 15 47l15 -3q-2 -10 -5 -18h23v-15h-5q-1 -31 -10 -53q6 -10 15 -17q-5 -10 -7 -17v0zM768 -97q4 15 5 34
h-10q1 -16 5 -34z" />
    <glyph glyph-name="hbk3" unicode="&#xe625;" 
d="M498 -31q0 8 4 14t10 6h43q9 9 32.5 33t33.5 34.5t26 28.5t26 32t18 28q11 39 -12 60.5t-52 16.5v24l54 93q-14 -5 -46.5 -18.5t-53 -21t-22.5 -5.5q-2 52 37 65l172 70l-93 -166q61 21 84 -7q29 -43 -3 -107q-15 -30 -68 -76.5t-130 -83.5h264q4 0 8 -3q61 62 95 143
t34 171q0 91 -35 173.5t-95 142t-142.5 95t-173.5 35.5t-173.5 -35.5t-142.5 -95t-95 -142t-35 -173.5q0 -119 57.5 -220t156.5 -161.5t217 -64.5v115zM546 481l-29 -41h-70l90 129h69q61 -14 63 -44q1 -24 -38 -38q-35 -11 -85 -6zM573 573h-42l-78 -113h-22l90 129h68z
M572 611l-15 -17h-42l-80 -114h-21l90 131h68zM466 569l-21 -32q-34 5 -44 -10q-8 -13 19 -22q1 0 2 -1l-16 -23q-59 5 -63 34q-3 25 37 42q36 16 86 12zM275 130q-37 -1 -48 16q-13 25 11 105q-2 5 -11 8t-16 3q-1 -3 -1.5 -9t-2 -10.5t-5.5 -6.5q-3 0 -5 5.5t-4 14
t-3 11.5q-13 8 -15.5 18.5t4.5 17t17 4.5q-2 25 -1.5 53.5t3.5 29.5q64 -2 27 -94l18 -8q34 105 68 108q-3 -10 -9.5 -30t-10 -32.5t-7 -29.5t-3.5 -30q25 -9 35.5 -17.5t3.5 -16.5q-3 -5 -21 2t-22 4q-5 -15 -3.5 -46t4 -48.5t-2.5 -21.5v0zM419 -8q-14 -3 -29.5 24
t-20 56.5t4.5 47.5q17 5 30.5 -11.5t20 -39.5t5.5 -46t-11 -31zM453 126q-16 1 -53 18t-46 12q-3 -31 -16.5 -69.5t-28.5 -55.5q-13 33 12 138q-2 5 -7 7t-12.5 3.5t-10.5 3.5q-11 43 0 49q6 2 23 -7t19 -8q2 -1 4 5q5 21 0 38q-1 2 -2 2q-35 12 -30 42q5 3 18.5 -5t17.5 -6
q3 6 4.5 19t-2.5 16q-23 6 -22 18q5 5 28 0t34 -17q6 -22 -7 -51q31 -11 46 -25q1 -10 0 -17t-4.5 -24t-4.5 -24q-1 -5 4 -8t16 -6.5t18 -8.5q8 -8 2 -39zM188 511l298 -152l351 172l-337 -195l-10 -398l-12 397zM644 -80h-11v-17h11v17zM823 -10h-312q-6 0 -10.5 -6
t-4.5 -15v-117q0 -9 4.5 -15t10.5 -6h312q6 0 10 6t4 15v117q0 9 -4 15t-10 6zM554 -28l20 -16l-12 -13q-8 9 -18 17l10 12v0zM551 -61q9 -7 20 -16l-12 -13q-9 9 -18 17l10 12v0zM559 -150q-8 3 -16 5q6 21 12 48l16 -6zM659 -135q0 -6 -2.5 -9.5t-7 -4t-18.5 -0.5
q-2 8 -4 15q-2 -8 -7 -17q-6 5 -15 10q5 6 7 12h-24v-7h-15v55h12v17h-15v14h15v22h16v-22h13v-14h-13v-17h12v-48q5 11 5 40v56h41v-102zM720 -150h-19v21l-29 -10l-4 20q17 4 33 9v34h-30v16h30v30h19v-120zM761 -131h3q3 0 5.5 1.5t3.5 5.5t2 23l17 -5q-1 -13 -2.5 -22.5
t-7 -14t-14.5 -4.5h-11q-22 0 -22 20v97h18v-36q15 10 27 20l13 -15q-18 -13 -40 -26v-37q0 -7 8 -7zM644 -127v16h-12q-2 -15 -4 -22h10q6 0 6 6zM633 -49h11v-16h-11v16zM588 -95h10v-20h-10v20z" />
    <glyph glyph-name="jilinkuai3" unicode="&#xe627;" 
d="M498 -31q0 8 4 14t10 6h43q9 9 32.5 33t33.5 34.5t26 28.5t26 32t18 28q11 39 -12 60.5t-52 16.5v24l54 93q-14 -5 -46.5 -18.5t-53 -21t-22.5 -5.5q-2 52 37 65l172 70l-93 -166q61 21 84 -7q29 -43 -3 -107q-15 -30 -68 -76.5t-130 -83.5h264q4 0 8 -3q61 62 95 143
t34 171q0 91 -35 173.5t-95 142t-142.5 95t-173.5 35.5t-173.5 -35.5t-142.5 -95t-95 -142t-35 -173.5q0 -119 57.5 -220t156.5 -161.5t217 -64.5v115zM546 481l-29 -41h-70l90 129h69q61 -14 63 -44q1 -24 -38 -38q-35 -11 -85 -6zM573 573h-42l-78 -113h-22l90 129h68z
M572 611l-15 -17h-42l-80 -114h-21l90 131h68zM466 569l-21 -32q-34 5 -44 -10q-8 -13 19 -22q1 0 2 -1l-16 -23q-59 5 -63 34q-3 25 37 42q36 16 86 12zM275 130q-37 -1 -48 16q-13 25 11 105q-2 5 -11 8t-16 3q-1 -3 -1.5 -9t-2 -10.5t-5.5 -6.5q-3 0 -5 5.5t-4 14
t-3 11.5q-13 8 -15.5 18.5t4.5 17t17 4.5q-2 25 -1.5 53.5t3.5 29.5q64 -2 27 -94l18 -8q34 105 68 108q-3 -10 -9.5 -30t-10 -32.5t-7 -29.5t-3.5 -30q25 -9 35.5 -17.5t3.5 -16.5q-3 -5 -21 2t-22 4q-5 -15 -3.5 -46t4 -48.5t-2.5 -21.5v0zM419 -8q-14 -3 -29.5 24
t-20 56.5t4.5 47.5q17 5 30.5 -11.5t20 -39.5t5.5 -46t-11 -31zM453 126q-16 1 -53 18t-46 12q-3 -31 -16.5 -69.5t-28.5 -55.5q-13 33 12 138q-2 5 -7 7t-12.5 3.5t-10.5 3.5q-11 43 0 49q6 2 23 -7t19 -8q2 -1 4 5q5 21 0 38q-1 2 -2 2q-35 12 -30 42q5 3 18.5 -5t17.5 -6
q3 6 4.5 19t-2.5 16q-23 6 -22 18q5 5 28 0t34 -17q6 -22 -7 -51q31 -11 46 -25q1 -10 0 -17t-4.5 -24t-4.5 -24q-1 -5 4 -8t16 -6.5t18 -8.5q8 -8 2 -39zM188 511l298 -152l351 172l-337 -195l-10 -398l-12 397zM573 -106h60v-18h-60v18zM823 -7h-312q-6 0 -10.5 -6
t-4.5 -14v-118q0 -8 4.5 -14t10.5 -6h312q6 0 10 6t4 14v118q0 8 -4 14t-10 6zM650 -146h-17v7h-60v-7h-17v55h94v-55zM663 -55h-51v-11h42v-15h-102v15h42v11h-51v15h51v17h18v-17h51v-15zM704 -146h-17v52q-5 -14 -13 -26q-2 8 -6 22q10 14 18 36h-17v16h18v22h17v-22h13
v-16h-13v-9q11 -8 20 -16l-11 -12q-4 5 -9 10v-57zM782 -127q-13 15 -21 49v-68h-17v65q-9 -29 -24 -49q-6 10 -11 17q20 22 30 51h-17v15h22v23h17v-23h28v-15h-23q10 -31 27 -48q-4 -7 -11 -17z" />
    <glyph glyph-name="love" unicode="&#xe6c2;" 
d="M512 721q-77 73 -183 73q-110 0 -187.5 -77.5t-77.5 -187.5q0 -56 24.5 -117t64 -113.5t87.5 -103t95.5 -89.5t87 -69t64.5 -46l25 -16q9 6 25 16.5t62.5 45t89 70t94 88.5t88.5 104t62.5 112.5t25.5 117.5q0 110 -77.5 187.5t-187.5 77.5q-105 0 -182 -73v0zM512 721z
" />
    <glyph glyph-name="delete" unicode="&#xe74b;" 
d="M721 524q-8 0 -13.5 -5.5t-5.5 -13.5v-354h-381v354q0 8 -5.5 13.5t-13.5 5.5t-13.5 -5.5t-5.5 -13.5v-373q0 -8 5.5 -13.5t13.5 -5.5h419q8 0 13.5 5.5t5.5 13.5v373q0 8 -5.5 13.5t-13.5 5.5zM764 605h-143l-44 44q-6 6 -14 6h-97q-8 0 -13 -5l-48 -45h-152
q-8 0 -13.5 -5.5t-5.5 -13.5t5.5 -13.5t13.5 -5.5h159q8 0 13 5l48 45h82l44 -45q6 -5 14 -5h151q8 0 13.5 5.5t5.5 13.5t-5.5 13.5t-13.5 5.5zM432 213v283q0 8 -5.5 13.5t-13.5 5.5t-13.5 -5.5t-5.5 -13.5v-283q0 -8 5.5 -13.5t13.5 -5.5t13.5 5.5t5.5 13.5zM530 213v283
q0 8 -6 13.5t-14 5.5t-13.5 -5.5t-5.5 -13.5v-283q0 -8 5.5 -13.5t13.5 -5.5t14 5.5t6 13.5zM628 213v283q0 8 -5.5 13.5t-13.5 5.5t-13.5 -5.5t-5.5 -13.5v-283q0 -8 5.5 -13.5t13.5 -5.5t13.5 5.5t5.5 13.5zM516 845q-94 0 -179 -36.5t-147 -98.5t-98.5 -147t-36.5 -179
t36.5 -179t98.5 -147t147 -98.5t179 -36.5t179 36.5t147 98.5t98.5 147t36.5 179t-36.5 179t-98.5 147t-147 98.5t-179 36.5zM516 -38q-115 0 -212 56.5t-153.5 153.5t-56.5 212t56.5 212t153.5 153.5t212 56.5t212 -56.5t153.5 -153.5t56.5 -212t-56.5 -212t-153.5 -153.5
t-212 -56.5z" />
    <glyph glyph-name="edit" unicode="&#xe733;" 
d="M512 -63v0v0zM960 385q0 81 -29 158l-55 -16q28 -69 28 -142q0 -107 -52.5 -197t-143 -142.5t-196.5 -52.5t-196.5 52.5t-143 142.5t-52.5 196.5t52.5 196.5t143 142.5t196.5 52.5q75 0 145 -28l16 54q-78 30 -161 30q-91 0 -174 -35.5t-143 -95.5t-95.5 -142.5
t-35.5 -173.5t35.5 -174t95.5 -143t143 -95.5t174 -35.5t174 35.5t143 95.5t95.5 143t35.5 174zM428 360l-75 -134l134 74l-58 58zM479 377l25 -25q5 -5 11.5 -5t11.5 5l396 395q11 11 0 23l-26 25q-5 5 -11.5 5t-10.5 -5l-396 -395q-11 -12 0 -23z" />
    <glyph glyph-name="refresh" unicode="&#xe666;" 
d="M512 -128q-139 0 -257 68.5t-186.5 186.5t-68.5 257t68.5 257t186.5 186.5t257 68.5t257 -68.5t186.5 -186.5t68.5 -257t-68.5 -257t-186.5 -186.5t-257 -68.5zM801 459h-56q23 -52 23 -104q0 -108 -75 -184t-181 -76t-181 76t-75 183.5t75 184t180 76.5l1 -97l118 121
l-118 120l-1 -92q-127 0 -216.5 -91.5t-89.5 -220.5t90 -220.5t217 -91.5t217 91.5t90 220.5q0 52 -18 104z" />
    <glyph glyph-name="allin" unicode="&#xe630;" 
d="M756 154h-49l-15 48h-77l-15 -48h-49l77 210h53zM681 237l-24 72q-2 7 -3 19h-1q-1 -9 -4 -18l-24 -73h56zM806 154v222h43v-222h-43zM916 154v222h44v-222h-44zM551 302q-45 28 -100 36.5t-137 8.5q-8 0 -13 -5t-5 -13v-96l-187 158l187 170v-77q0 -7 5 -12t13 -5
q149 0 237 -126v55q-88 99 -220 105v100q0 11 -10.5 16t-18.5 -3l-232 -210q-6 -6 -5.5 -13.5t6.5 -12.5l231 -197q9 -7 19 -2t10 16v117q77 -1 128 -11.5t92 -41.5v43z" />
    <glyph glyph-name="new" unicode="&#xe613;" 
d="M488 710l-386 -386v-434l820 820h-434zM357 204q-12 4 -27 7l-153 31q-11 2 -29 8q15 -12 24 -22l82 -82q14 -14 24 -21l-18 -18q-6 10 -21 25l-101 101q-12 12 -23 19l20 21q8 -4 27 -8l151 -30q15 -3 33 -8q-24 21 -26 24l-81 81q-13 13 -24 20l18 18q8 -11 20 -23
l102 -102q13 -13 23 -20zM485 332l-56 -56q-12 -11 -21 -22q-8 11 -21 24l-102 102q-10 11 -23 20q11 10 22 21l54 54q12 13 20 23l16 -16q-11 -8 -23 -20l-58 -59l49 -49l50 50q11 12 20 23l16 -16q-11 -8 -23 -20l-50 -50l56 -56l61 60q11 12 19 23l16 -16q-9 -7 -22 -20z
M624 508l-107 57q-17 9 -28 17q2 -4 3 -4q1 -1 6.5 -11t7.5 -13l57 -107q8 -15 13 -24l-14 -14q-4 3 -24 13l-135 75q-18 10 -30 14l20 19q9 -8 23 -16l106 -61q4 -2 26 -16q-11 19 -16 27l-58 110q-8 14 -14 23l14 14q10 -7 23 -14l110 -58q7 -4 27 -16l-17 27l-60 105
q-9 15 -16 23l19 20q5 -12 15 -30l74 -134q10 -19 14 -24l-15 -15q-10 6 -24 13z" />
    <glyph glyph-name="user-center" unicode="&#xe60c;" 
d="M512 -51q-88 0 -168.5 34.5t-139 93t-93 139t-34.5 168.5t34.5 168.5t93 139t139 93t168.5 34.5t168.5 -34.5t139 -93t93 -139t34.5 -168.5t-34.5 -168.5t-93 -139t-139 -93t-168.5 -34.5zM512 785q-109 0 -201.5 -53.5t-146 -146t-53.5 -201.5t53.5 -201.5t146 -146
t201.5 -53.5t201.5 53.5t146 146t53.5 201.5t-53.5 201.5t-146 146t-201.5 53.5zM292 129q-4 0 -8 2q-6 3 -8 10t1 13q5 10 21.5 19t57.5 26q57 23 65 31q3 14 -5 35q-21 25 -25 50q-23 13 -33 44q-11 36 11 60q-21 107 15 155l2 2q10 14 24 25.5t38 22.5t60.5 7t79.5 -25
q41 -12 60 -47q29 -53 6 -139q20 -24 11 -53q-7 -27 -27 -41q-4 -27 -25 -63q-4 -19 -2 -28q5 -3 30 -15q76 -36 103 -61q5 -5 5 -12t-5 -12t-12 -5.5t-12 4.5q-23 22 -94 55q-38 18 -43 26q-12 17 -3 58l1 3l1 2q23 37 22 57v12l11 5q13 7 18 24q4 16 -8 24l-11 8l4 12
q3 7 6.5 22t4 47.5t-10.5 52.5q-12 24 -41 31l-3 1q-53 27 -94 22.5t-66 -39.5q-1 -2 -3 -4q-28 -37 -6 -136l2 -12l-10 -7q-13 -8 -6 -29q7 -22 19 -25l15 -3l-1 -15q-1 -18 20 -41l2 -2l1 -3q14 -34 7 -61q-4 -12 -21.5 -22.5t-63.5 -29.5q-56 -23 -62 -30q-5 -8 -15 -8v0
z" />
    <glyph glyph-name="qq" unicode="&#xe61b;" 
d="M551 61v0h-23h-16h-6q-17 0 -22 -5q-34 -34 -112 -34q-47 0 -89 17q-33 17 -33 39q0 23 39 39q22 7 22 22q0 23 -5.5 28.5t-14 19.5t-13.5 19q-9 17 -28 17v0q-5 0 -9 -1.5t-10.5 -5t-8.5 -4.5q-17 -17 -22 -17v0q-5 0 -8 12t-3 32q0 28 11 95q16 50 55 89q11 11 11 28
v11q0 25 17 51q6 5 6 16v6q0 100 72 173q65 72 167 72q101 0 173 -72q73 -82 73 -173v-6q0 -11 5 -16q17 -26 17 -51v-11q0 -22 11 -28q39 -39 56 -89q19 -56 11 -94q0 -37 -17 -45q-5 0 -22 17q-11 11 -28 11h-5q-20 0 -28 -17q-6 -17 -28 -39q-13 -13 -6 -28
q0 -5 2.5 -8.5t8 -8t6.5 -5.5q39 -16 39 -39q0 -22 -33.5 -39t-89.5 -17q-69 0 -111 34q5 0 -2 3q-6 2 -9 2v0v0zM679 -45q83 0 134 34q55 37 55 89q0 31 -16 56q16 0 22 5q47 16 56 84q8 58 -17 133q-14 50 -61 106v0q0 37 -17 78q0 129 -89 218t-217.5 89t-217.5 -89
q-89 -98 -89 -218q-17 -33 -17 -78v-5q-38 -32 -61 -100q-25 -76 -17 -134q8 -65 56 -84q3 0 11 -2.5t11 -2.5q-17 -25 -17 -56q0 -57 56 -89q50 -34 128 -34q93 0 140 39h28q54 -39 139 -39v0v0z" />
    <glyph glyph-name="cart" unicode="&#xe61e;" horiz-adv-x="1025" 
d="M883 110q-2 1 -5 1h-422l-19 71l355 26q10 1 17 8.5t7 16.5l68 376v8q-1 10 -8.5 16.5t-17.5 6.5h-542l-28 103q0 10 -7.5 17t-17.5 7h-173q-10 0 -17.5 -7t-7.5 -17.5t7.5 -17.5t17.5 -7h152l161 -607h-48q-3 0 -5 -1q-5 1 -9 1q-37 0 -63.5 -25.5t-26.5 -61.5t26.5 -61
t63.5 -25t63 25t26 61q0 21 -10 40h12q3 -1 7 0h355q-10 -19 -10 -40q0 -36 26 -61t63.5 -25t63.5 25t26 61q0 34 -23 58.5t-57 27.5zM340.5 -23q-20.5 0 -34.5 14t-14 33.5t14 33t34.5 13.5t35 -13.5t14.5 -33t-14.5 -33.5t-35 -14zM424 231l-95 359h499l-60 -334z
M873.5 -23q-20.5 0 -34.5 14t-14 33.5t14 33t34.5 13.5t34.5 -13.5t14 -33t-14 -33.5t-34.5 -14z" />
    <glyph glyph-name="addtocard" unicode="&#xe61f;" horiz-adv-x="1025" 
d="M756.5 830q-83.5 0 -142.5 -57t-59 -138t59 -138t142.5 -57t142.5 57t59 138t-59 138t-142.5 57zM756.5 484q-64.5 0 -110 44t-45.5 106.5t45.5 106.5t110 44t110 -44t45.5 -106.5t-45.5 -106.5t-110 -44zM821 99q-2 1 -5 1h-398l-18 67l335 25q10 1 16.5 7.5t6.5 16.5
l29 185q-15 -2 -30 -2q-9 0 -19 1l-26 -163l-325 -24l-85 315h248q-11 22 -17 47h-242h-2l-29 106q0 10 -7 16.5t-17 6.5h-148q-10 0 -17 -7t-7 -16.5t7 -16.5t17 -7h129l151 -557h-45h-5h-9q-35 0 -59.5 -24t-24.5 -58t24.5 -57.5t59.5 -23.5t60 23.5t25 57.5q0 20 -9 37
h10h7h335q-10 -17 -10 -37q0 -34 25 -57.5t60 -23.5t59.5 23.5t24.5 57.5q0 32 -21.5 55t-53.5 26v0zM309.5 -26q-19.5 0 -33 13t-13.5 31.5t13.5 31.5t33 13t33 -13t13.5 -31.5t-13.5 -31.5t-33 -13zM812 -26q-19 0 -32.5 13t-13.5 31.5t13.5 31.5t32.5 13t32.5 -13
t13.5 -31.5t-13.5 -31.5t-32.5 -13zM859 656h-80v78q0 6 -4.5 10t-10.5 4h-15q-6 0 -10 -4t-4 -10v-78h-81q-6 0 -10 -4t-4 -10v-14q0 -6 4 -10.5t10 -4.5h81v-78q0 -5 4 -9.5t10 -4.5h15q6 0 10.5 4.5t4.5 9.5v78h80q6 0 10.5 4.5t4.5 10.5v14q0 6 -4.5 10t-10.5 4z" />
    <glyph glyph-name="wepay" unicode="&#xe601;" horiz-adv-x="2585" 
d="M709 283q-3 -2 -6 -2q-9 0 -14 8l-1 2l-41 91q-1 2 -1 4q0 7 7 7q3 0 5 -1l49 -35q6 -4 13 -4q4 0 8 1l231 103q-32 38 -81 59.5t-106 21.5q-95 0 -162 -56t-67 -135q0 -42 21 -79.5t58 -64.5q6 -4 6 -12v-5q-10 -38 -11 -38q-1 -5 -1 -6q0 -8 8 -8q2 0 4 2l50 29
q6 3 12 3q4 0 7 -1q36 -10 75 -10q95 0 162 55.5t67 134.5q0 47 -26 89zM1429 374h129v-10h-129v10zM1429 338h129v-12h-129v12zM1433 226h121v69h-121v-69zM1543 236h-99v48h99v-48zM1401 441q-17 -60 -49 -106v0l7 -12q11 17 22 38v-136h12v160q11 24 19 50zM1494 411
l10 6l-6 12t-6 13l-11 -6l11 -22v-3h-75v-11h154v11h-77zM1205 438h10v-58h23v41h11v-52h-79v52h11v-41h24v58zM1174 346h69v-11h-69v11zM1253 283l-18 -15v44h-58v-18q2 -36 -18 -51l6 -11q25 21 23 58v11h36v-26q0 -12 -4 -17l7 -11q10 7 32 27zM1154 440q-17 -34 -41 -56
l7 -12q27 27 44 62zM1152 381q-16 -40 -42 -70l6 -11q11 12 21 26v-101h11v119q7 14 15 31zM1334 387v11h-52q10 29 12 43h-12q-11 -53 -33 -90l6 -12q2 4 6 11q3 6 5 9q5 -47 19 -75q-13 -23 -39 -46l6 -11q28 26 38 45q12 -22 36 -46l7 11q-25 24 -36 46q20 36 24 104h13z
M1291 296q-11 30 -17 81q2 5 5 10h31q-3 -57 -19 -91zM1952 281q-14 27 -37 63l9 4q25 -36 38 -60zM1806 227l3 10q-56 8 -96 32q47 30 67 77l-8 5h-2h-62v43h94v11h-94v41h-12v-41h-93v-11h93v-43h-64v-12q20 -42 60 -70q-39 -22 -95 -32l3 -11v-0.5v-0.5q61 12 103 37
q42 -27 102 -36l0.5 0.5zM1646 339h117q-19 -38 -60 -64q-38 26 -57 64zM1890 444q-22 -60 -61 -100l4 -13h0.5h0.5q14 14 29 36v-142h11v160q16 27 27 55zM2009 391v52h-12v-52h-100v-12h100v-136q0 -7 -7 -7q-1 0 -4 -0.5t-7.5 -0.5h-10.5v-11q22 0 30 2q11 3 11 18v135
h32v12h-32z" />
    <glyph glyph-name="home" unicode="&#xe685;" 
d="M516 896h-4q-103 0 -197.5 -40.5t-163 -108.5t-109.5 -162t-42 -197q-1 -104 39 -199t108 -164t162.5 -110.5t198.5 -42.5h4q103 0 197.5 40.5t163 108.5t109.5 162t42 197q1 104 -39 199t-108 164t-162.5 110.5t-198.5 42.5zM512 -107h-4q-100 1 -190.5 40.5t-155.5 106
t-103.5 157.5t-37.5 191q1 99 40.5 189t105 155.5t156 104t189.5 38.5h4q100 -1 190.5 -40.5t155.5 -106t103.5 -157.5t37.5 -191q-1 -99 -40.5 -189t-105 -155.5t-156 -104t-189.5 -38.5zM519 734q-7 7 -14 0l-319 -302q-6 -5 -3 -11.5t10 -6.5h83v-335q0 -5 3 -8t7 -3h146
q5 0 8 3t3 8v205h138v-205q0 -5 3 -8t8 -3h146q4 0 7 3t3 8v335h83q7 0 10 6.5t-3 11.5zM738 435q-5 0 -8 -3t-3 -7v-336h-125v206q0 4 -3 7t-7 3h-160q-4 0 -7 -3t-3 -7v-206h-125v336q0 4 -3 7t-8 3h-67l293 277l293 -277h-67z" />
    <glyph glyph-name="pengyou" unicode="&#xe746;" 
d="M401 -64q-336 0 -336 162q0 37 34 67.5t84.5 49t111.5 28.5v6q-31 24 -51.5 57.5t-30 73t-13 74t-3.5 76.5q0 99 55 155t153 56h7q98 0 153 -56t55 -155q0 -42 -3.5 -76.5t-13 -74t-30 -73t-51.5 -57.5v-6q61 -10 111.5 -28.5t84.5 -49t34 -67.5q0 -24 -8.5 -45.5
t-32 -43.5t-61 -37.5t-101.5 -25.5t-148 -10zM405 677q-144 0 -144 -147q0 -39 3 -70t11 -64.5t25.5 -60t43.5 -42.5q15 -10 15 -27v-52q0 -12 -8.5 -21t-20.5 -10q-84 -9 -142.5 -36.5t-58.5 -48.5q0 -98 272 -98q91 0 155.5 11.5t98 33.5t33.5 53q0 21 -58.5 48.5
t-142.5 36.5q-13 1 -21 10t-8 21v52q0 17 15 27q26 16 43.5 42.5t25.5 60t11 64.5t3 70q0 73 -36 110t-108 37h-7v0zM899 132q-13 0 -22.5 9.5t-9.5 22.5t-26.5 33t-73.5 38.5t-97 23.5q-12 2 -20.5 11t-8.5 21v67q0 17 15 27q29 18 49 48t28.5 63.5t11.5 58t3 47.5
q0 40 -12 67.5t-33.5 41.5t-43.5 19.5t-48 5.5q-14 0 -23 9.5t-9 22.5t9 22.5t23 9.5q93 0 147 -53t54 -145q0 -27 -3.5 -55.5t-13.5 -67.5t-33 -75.5t-57 -62.5v-22q54 -10 104.5 -31.5t86 -54.5t35.5 -69q0 -13 -9.5 -22.5t-22.5 -9.5z" />
    <glyph glyph-name="settings" unicode="&#xe74c;" 
d="M512 288q-40 0 -68 28t-28 68t28 68t68 28t68 -28t28 -68t-28 -68t-68 -28zM512 416q-13 0 -22.5 -9.5t-9.5 -22.5t9.5 -22.5t22.5 -9.5t22.5 9.5t9.5 22.5t-9.5 22.5t-22.5 9.5zM631 -64q-16 0 -26 13l-73 101q-20 -2 -40 0l-73 -101q-14 -18 -35 -12q-52 15 -98 41
q-19 10 -16 32l20 124q-15 13 -28 28l-124 -20q-22 -3 -32 16q-26 47 -41 98q-6 22 12 35l101 73q-1 9 -1 20t1 20l-101 73q-18 14 -12 35q15 52 41 98q10 19 32 16l124 -20q13 15 28 28l-20 124q-3 22 17 32q46 26 97 41q22 6 35 -12l73 -101q20 2 40 0l73 101q13 18 35 12
q51 -15 98 -41q19 -10 16 -32l-20 -124q15 -13 28 -28l124 20q22 3 32 -16q26 -46 41 -98q6 -22 -12 -35l-101 -73q1 -9 1 -20t-1 -20l101 -73q18 -13 12 -35q-15 -52 -41 -98q-11 -19 -33 -16l-123 19q-12 -14 -28 -27l20 -124q3 -22 -16 -32q-46 -26 -98 -41q-5 -1 -9 -1z
M337 23q21 -10 44 -18l70 97q11 15 30 13q31 -4 62 0q19 2 30 -13l70 -97q23 8 44 18l-19 119q-3 18 12 30q25 20 44 44q12 15 30 12l118 -19q11 21 18 44l-96 70q-15 11 -13 30q2 16 2 31t-2 31q-2 19 13 30l96 70q-7 23 -18 44l-118 -19q-18 -3 -30 12q-20 25 -44 44
q-14 12 -12 30l19 119q-21 10 -44 18l-70 -97q-11 -15 -30 -13q-31 4 -62 0q-19 -2 -30 13l-70 97q-23 -8 -44 -18l19 -119q2 -18 -12 -30q-24 -19 -44 -44q-12 -14 -30 -12l-119 19q-10 -21 -18 -44l97 -70q15 -11 13 -30q-2 -16 -2 -31t2 -31q2 -19 -13 -30l-97 -70
q8 -23 18 -44l119 19q18 2 30 -12q19 -25 44 -44q15 -12 12 -30z" />
    <glyph glyph-name="shenfen" unicode="&#xe74d;" 
d="M210 5q-47 0 -80.5 33.5t-33.5 80.5v498q0 47 33.5 80.5t80.5 33.5h623q47 0 80 -33.5t33 -80.5v-498q0 -47 -33 -80.5t-80 -33.5h-623zM210 670q-22 0 -37.5 -15.5t-15.5 -37.5v-498q0 -22 15.5 -37.5t37.5 -15.5h623q21 0 36.5 15.5t15.5 37.5v498q0 22 -15.5 37.5
t-36.5 15.5h-623zM791 192q-13 0 -21.5 9t-8.5 22q0 39 -27.5 66.5t-66.5 27.5t-67 -27.5t-28 -66.5q0 -13 -8.5 -22t-21.5 -9t-21.5 9t-8.5 22q0 39 19 74t53 56q-31 33 -31 77q0 47 33.5 80.5t80.5 33.5t80 -33.5t33 -80.5q0 -44 -31 -77q34 -21 53.5 -56t19.5 -74
q0 -13 -9 -22t-22 -9zM666.5 483q-21.5 0 -37 -15.5t-15.5 -37.5t15.5 -37t37 -15t37 15t15.5 37t-15.5 37.5t-37 15.5zM435 482h-187q-13 0 -22.5 9.5t-9.5 22.5t9.5 22.5t22.5 9.5h187q13 0 22.5 -9.5t9.5 -22.5t-9.5 -22.5t-22.5 -9.5zM435 336h-187q-13 0 -22.5 9.5
t-9.5 22.5t9.5 22.5t22.5 9.5h187q13 0 22.5 -9.5t9.5 -22.5t-9.5 -22.5t-22.5 -9.5zM435 192h-187q-13 0 -22.5 9t-9.5 22.5t9.5 23t22.5 9.5h187q13 0 22.5 -9.5t9.5 -23t-9.5 -22.5t-22.5 -9z" />
    <glyph glyph-name="zuobiao" unicode="&#xe769;" 
d="M511.5 288q-79.5 0 -135.5 56.5t-56 135.5t56.5 135.5t135.5 56.5t135.5 -56.5t56.5 -135.5t-56.5 -135.5t-136 -56.5zM512 608q-53 0 -90.5 -37.5t-37.5 -90.5t37.5 -90.5t90.5 -37.5t90.5 37.5t37.5 90.5t-37.5 90.5t-90.5 37.5zM512 -64q-13 0 -22 9q-10 9 -10 22
t9 23q39 41 86 97.5t100.5 129.5t89 144.5t35.5 118.5q0 119 -84.5 203.5t-203.5 84.5t-203.5 -84.5t-84.5 -203.5q0 -57 53 -151.5t151 -216.5q9 -10 7.5 -23t-11.5 -21.5t-23.5 -7t-21.5 11.5q-219 268 -219 408q0 95 47 176.5t128 128.5t176.5 47t177 -47t128.5 -128.5
t47 -176.5q0 -52 -34 -127t-76.5 -137t-98 -131t-79.5 -95t-41 -44q-10 -10 -23 -10z" />
    <glyph glyph-name="tijiao" unicode="&#xe668;" 
d="M186 640h535v-47h-535v47zM186 407h210v-46h-210v46zM582 0l-203 228l33 33l170 -191l379 377l33 -33zM815 81v-116q0 -19 -14 -32.5t-33 -13.5h-628q-20 0 -33.5 13.5t-13.5 32.5v838q0 19 13.5 32.5t33.5 13.5h628q19 0 33 -13.5t14 -32.5v-349h46v349q0 38 -27.5 65.5
t-65.5 27.5h-628q-39 0 -66 -27.5t-27 -65.5v-838q0 -38 27 -65.5t66 -27.5h628q38 0 65.5 27.5t27.5 65.5v116h-46z" />
    <glyph glyph-name="sound-off" unicode="&#xe836;" horiz-adv-x="1025" 
d="M394 516v-264l2 -1l184 -142v550l-185 -143h-1zM803 737v0q11 12 23 0q11 -11 0 -23l-52 -52l52 -53q12 -11 0 -23q-12 -11 -23 0l-53 53l-52 -53q-5 -5 -11.5 -5t-11.5 5t-5 12t5 11l52 53l-52 52q-12 11 0 23q5 5 11.5 5t11.5 -5l52 -52zM361 510v0h-112v-253h112v253z
M369 566v0l221 170q8 6 18 6q12 0 20 -8t8 -19v-183q39 -16 65 -49q34 -43 34 -99t-34 -99q-26 -33 -65 -49v-183q0 -9 -6 -17q-7 -9 -18 -10.5t-20 5.5l-223 171h-148q-11 0 -19 8.5t-8 19.5v308q0 11 8 19.5t19 8.5h148zM636 495v0v-222q22 12 38 32q28 34 28 79t-28 79
q-16 20 -38 32v0z" />
    <glyph glyph-name="sound-on" unicode="&#xe837;" horiz-adv-x="1025" 
d="M350 508v-264l2 -1l184 -142v550zM685 614v0q-10 6 -13 17t3 21t17 13t21 -3q75 -46 118.5 -122t43.5 -164q0 -87 -43 -164q-44 -76 -119 -121q-10 -6 -21 -3.5t-17 12.5t-3 21t13 17q63 37 99 101q36 63 36 137t-36 137q-36 64 -99 101v0zM317 502v0h-113v-253h113v253
v0zM324 558v0l222 169q7 7 18 7t19 -8t8 -19v-183q39 -16 65 -49q34 -43 34 -99t-34 -99q-26 -33 -65 -49v-183q0 -9 -5 -17q-7 -9 -18.5 -10.5t-20.5 5.5l-223 171h-147q-12 0 -19.5 8t-7.5 20v308q0 11 8 19.5t19 8.5h147zM591 487v0v-222q23 12 39 32q27 35 27 79t-27 79
q-16 20 -39 32v0z" />
    <glyph glyph-name="add" unicode="&#xe670;" 
d="M753 360v0q8 0 14 6t6 14.5t-6 14.5t-14 6h-222v222v0q0 9 -6 15t-14.5 6t-15 -6t-6.5 -15v-222h-222q-8 0 -14 -6t-6 -14.5t6 -14.5t14 -6v0h222v-222q0 -9 6.5 -15t15 -6t14.5 6t6 15v0v222h222zM942 382q0 118 -58 217t-157.5 157t-216.5 58t-216.5 -58t-157 -157
t-57.5 -216.5t57.5 -217t157 -157t216.5 -57.5q144 0 260 88q5 6 5 12q0 8 -5.5 14t-13.5 6q-9 0 -14 -6v0q-104 -76 -232 -76q-106 0 -196 52t-142 142t-52 196.5t52 196.5t142 142t196.5 52t196.5 -52t142 -142t52 -197q0 -98 -44 -182v0q-1 -4 -1 -6q0 -8 5.5 -13.5
t13.5 -5.5q13 0 18 12v0q49 95 49 198z" />
    <glyph glyph-name="wechat" unicode="&#xe620;" 
d="M513 -67q-91 0 -174.5 36t-144 96t-96 143.5t-35.5 175t35.5 175t96 144t144 96t175 35.5t175 -35.5t144 -96t96 -144t35.5 -174.5q0 -120 -59 -224q-5 -8 -13.5 -10t-16 2.5t-10 13t2.5 15.5q53 94 53 203q0 110 -54.5 204t-148.5 149t-204.5 55t-204.5 -55t-149 -149
t-55 -204.5t55 -204.5t149 -148.5t204 -54.5q133 0 239 77q7 5 16 3.5t14 -8.5t3.5 -16t-8.5 -14q-118 -85 -264 -85zM685 243l29 -72l-72 52q-22 -6 -44 -6q-59 0 -101 37.5t-42 91t42 91.5t101.5 38t101.5 -38t42 -91q0 -64 -57 -103zM598.5 456q-51.5 0 -88.5 -32.5
t-37 -78t37 -78t88 -32.5q22 0 43 7l4 1l28 -20l-11 27l7 5q26 15 40 39t14 52q0 45 -36.5 77.5t-88 32.5zM644.5 364q-7.5 0 -12.5 5.5t-5 13t5 13t12.5 5.5t13 -5.5t5.5 -13t-5.5 -13t-13 -5.5zM552.5 364q-7.5 0 -12.5 5.5t-5 13t5 13t12.5 5.5t13 -5.5t5.5 -13t-5.5 -13
t-13 -5.5zM516 498q0 -9 -6.5 -15.5t-15 -6.5t-14.5 6.5t-6 15.5t6 15.5t14.5 6.5t15 -6.5t6.5 -15.5zM366 498q0 9 6 15.5t15 6.5t15 -6.5t6 -15.5t-6 -15.5t-15 -6.5t-15 6.5t-6 15.5zM442 586q-62 0 -105 -38.5t-43 -92.5q0 -32 17 -61t47 -47l7 -4l-15 -36l38 26l4 -1
q13 -4 28 -6l4 -20q-17 2 -33 7l-82 -58l33 80q-31 21 -48.5 52.5t-17.5 67.5q0 62 48.5 105.5t117.5 43.5q51 0 92.5 -25.5t60.5 -66.5q-10 0 -20 -2q-18 34 -54 55t-79 21z" />
    <glyph glyph-name="password" unicode="&#xe642;" 
d="M512 -66q-91 0 -175 36q-81 34 -143 96t-96 143q-36 84 -36 175t36 175q34 81 96 143t143 96q84 36 175 36t175 -36q81 -34 143 -96t96 -143q36 -84 36 -175t-36 -175q-34 -81 -96 -143t-143 -96q-84 -36 -175 -36zM512 794q-111 0 -205.5 -55t-149.5 -149.5t-55 -205.5
t55 -205.5t149.5 -149.5t205.5 -55t205.5 55t149.5 149.5t55 205.5t-55 205.5t-149.5 149.5t-205.5 55zM645 521q0 57 -37.5 93t-96.5 36q-58 0 -95 -39.5t-37 -96.5v-64h-16q-28 0 -47.5 -19.5t-19.5 -46.5v-199q0 -28 19.5 -47.5t47.5 -19.5h298q28 0 47.5 19.5t19.5 47.5
v199q0 27 -19.5 46.5t-47.5 19.5h-249v64q0 43 27.5 73t71.5 30q45 0 73 -26.5t28 -69.5q0 -2 0.5 -4t4.5 -6t11 -4t11 3.5t5 6.5zM695 185q0 -14 -10 -24t-24 -10h-298q-14 0 -24 10t-10 24v199q0 14 10 23.5t24 9.5h298q14 0 24 -9.5t10 -23.5v-199zM512 351
q-14 0 -23.5 -10t-9.5 -23q0 -20 16 -29v-54q0 -7 5 -12t12 -5t12 5t5 12v54q16 9 16 29q0 13 -9.5 23t-23.5 10z" />
    <glyph glyph-name="alipay" unicode="&#xe678;" 
d="M142 370q-20 -2 -31 -11q-11 -12 -11.5 -25t13.5 -24t37 -11q44 0 80 48q-55 27 -88 23v0zM326 344l56 -16v163q0 21 -15 36t-36 15h-215q-21 0 -36 -15t-15 -36v-214q0 -21 15 -36t36 -15h215q21 0 36 15t15 36v2q-83 34 -124 54q-45 -55 -102 -55q-30 0 -48.5 15.5
t-19 36t13.5 39.5q11 14 34 20q33 8 110 -17q12 20 18 43h-124v13h64v22h-77v13h77v32q0 5 6 5h31v-37h76v-13h-76v-22h62q-8 -36 -26 -67q7 -2 17.5 -6t18 -7t13.5 -4v0zM832 492h91v-18h32v22v0q0 8 -8 9h-52v16h-34v-16h-61v-31h32v18zM636 520l-33 -79h25v-93h28v124
h-10l21 48h-31zM959 352l-10 34q-1 4 -5 4h-27l8 -26h-32v51h62v12h-62v24h62v12h-155v-12h62v-24h-62v-12h62v-51h-62v-12h159v0v0v0zM707 455q-1 4 -5 4h-24l18 -59h29zM768 518h-28v-30h-72v-12h72v-109q-1 -4 -5 -4h-15v-13h38q10 0 10 11v115h12v12h-12v30v0zM588 463
h-56v20h65v13h-65v25h-28q-6 0 -6 -6v-19h-64v-13h64v-20h-54v-12h107q-6 -23 -35 -48q-12 8 -20.5 17t-11.5 14l-3 4h-29q16 -27 46 -49q-28 -18 -65 -29v-15q42 8 83 32q18 -10 39 -18t32 -11l12 -3v14q-36 13 -64 31q42 31 53 73v0zM497 265l4 -15h14l-27 72h-10l-26 -72
h13l5 15h27zM484 304l10 -30h-21zM557 322v-72h44v10h-31v62h-13zM649 322h13v-72h-13v72zM742 322h-28v-72h13v28h15q11 0 17.5 6t6.5 16t-6.5 16t-17.5 6zM741 288h-14v25h14q12 0 12 -12.5t-12 -12.5zM842 265l5 -15h13l-26 72h-11l-26 -72h13l5 15h27zM829 304l10 -30
h-20zM932 322l-14 -30l-14 30h-14l22 -42v-30h13v30v0l21 42h-14z" />
    <glyph glyph-name="mail" unicode="&#xe632;" 
d="M442 399l70 -57l106 87l268 229q-7 2 -13 2h-722q-6 0 -13 -2l268 -230zM512 284l-104 84l-270 -258q8 -2 13 -2h722q5 0 13 2l-270 259zM919 626l-267 -229l267 -256q3 8 3 16v454q0 7 -3 15zM105 626q-3 -8 -3 -15v-454q0 -8 3 -16l267 256z" />
    <glyph glyph-name="remen" unicode="&#xe6a8;" 
d="M378 16q-23 48 -25.5 89t8 67t32.5 58q18 26 30.5 56t16.5 46l4 17q1 -2 3 -5t7.5 -14t7.5 -22.5t4 -30t-3 -36.5q39 43 53 105t6 98q64 -44 102.5 -118.5t40.5 -154.5t-33 -155q80 45 128.5 100.5t62 108t8.5 106.5t-25 99t-46 84t-47 62.5t-35 32.5q15 -26 12.5 -68
t-26.5 -64q-16 63 -43 113.5t-54 78t-51.5 46.5t-40.5 25l-15 6q21 -139 -139 -334q-2 40 -7.5 65.5t-21.5 55.5q-3 -45 -41 -121.5t-45 -112.5q-18 -88 20.5 -153.5t151.5 -129.5v0v0zM516.5 886q-102.5 0 -196.5 -40t-161.5 -107.5t-107.5 -161t-40 -196.5t40 -196.5
t107.5 -161.5t161.5 -108t196.5 -40t196 40t161.5 108t108 161.5t40 196.5t-40 196.5t-108 161t-161.5 107.5t-196 40zM516 -76q-93 0 -177.5 36t-145.5 97.5t-97 146t-36 177.5t36 177.5t97 145.5t145.5 97t177.5 36t177.5 -36t146 -97t97.5 -145.5t36 -177.5t-36 -177.5
t-97.5 -146t-146 -97.5t-177.5 -36z" />
    <glyph glyph-name="kuaisu" unicode="&#xe788;" 
d="M592 432q27 0 45.5 18.5t18.5 45.5t-18.5 45.5t-45.5 18.5t-45.5 -18.5t-18.5 -45.5t18.5 -45.5t45.5 -18.5v0zM592 464q-13 0 -22.5 9.5t-9.5 22.5t9.5 22.5t22.5 9.5t22.5 -9.5t9.5 -22.5t-9.5 -22.5t-22.5 -9.5zM602 315q-1 -2 -4 -7q-5 -9 -12 -20q-20 -32 -44 -59
q-41 -46 -83 -68l20 -23q3 4 8 12q10 14 18 30q25 51 22 92q0 6 -5 10.5t-11.5 4t-11 -5.5t-4.5 -11q3 -32 -19 -76q-7 -14 -16 -27q-4 -7 -7 -10q-7 -10 1 -20t19 -4q48 24 93 75q26 29 47 63q7 11 13 21q3 6 4 9q3 6 1 12t-8 9t-12 1t-9 -8zM246 115q9 1 23 3q28 6 52 17
q22 11 38 28q29 29 43 50t15.5 41t-15.5 35q-44 44 -129 -41q-17 -17 -28 -41q-10 -23 -14 -50q-2 -15 -2 -26v0q0 -6 5 -11t12 -5zM245 147l16 -15v0q0 31 13 62q9 19 22 32q62 62 84 40q18 -19 -44 -81q-12 -12 -30 -21q-19 -10 -42 -14q-12 -2 -19 -3zM407 516
q-3 -2 -8 -5q-10 -6 -20 -13q-33 -22 -61 -48q-51 -47 -74 -97q-5 -12 5 -19.5t20 0.5q4 3 10 7q13 9 27 17q42 23 74 22q7 0 12 4.5t5 11t-4.5 11.5t-11.5 5q-40 1 -91 -26q-15 -8 -29 -19q-8 -5 -12 -8l25 -19q20 44 66 87q26 24 57 45l18 12q5 2 7 4q6 3 8 9.5t-1.5 12
t-9.5 7.5t-12 -1zM736 638q1 -1 1 -5q3 -72 -20 -136q-17 -50 -50 -82q-76 -76 -126 -94.5t-89 18.5q-78 78 68 223q33 34 87 50q61 18 133 13q7 -1 10 -1zM512 -80q192 0 328 136t136 328t-136 328t-328 136t-328 -136t-136 -328t136 -328t328 -136zM768 641q-1 13 -14 15
q-4 0 -12 1q-77 6 -144 -14q-62 -19 -101 -58q-168 -168 -68 -269q34 -34 74 -35t85 26.5t102 84.5q37 37 57 94q25 70 22 149q-1 4 -1 6v0zM512 -48q-179 0 -305.5 126.5t-126.5 305.5t126.5 305.5t305.5 126.5t305.5 -126.5t126.5 -305.5t-126.5 -305.5t-305.5 -126.5v0z
" />
    <glyph glyph-name="recharge" unicode="&#xe62d;" 
d="M660 384q15 0 25.5 10.5t10.5 25.5t-10.5 26t-25.5 11h-111v1l135 142q11 11 10.5 26t-11 25.5t-26 10t-25.5 -11.5l-116 -122l-123 123q-11 10 -26 10t-25.5 -10.5t-11 -25.5t10.5 -26l135 -135v-7h-108q-16 0 -26.5 -11t-10.5 -26t10.5 -25.5t26.5 -10.5h108v-73h-108
q-16 0 -26.5 -11t-10.5 -26t10.5 -26t26.5 -11h108v-108q0 -15 10.5 -26t25.5 -11t26 11t11 26v108h111q15 0 25.5 11t10.5 26t-10.5 26t-25.5 11h-111v73h111zM1023 410v-25h-72v-1q0 -89 -35 -170.5t-93.5 -140t-140 -93.5t-170.5 -35t-170 35t-140 93.5t-93.5 140
t-34.5 170.5t34.5 170t93.5 140t140 93.5t170 34.5h1v73v0q-104 0 -199 -40.5t-163.5 -109t-109 -163t-40.5 -198.5t40.5 -199t109 -163.5t163 -109t198.5 -40.5t199 40.5t163.5 109t109 163.5t40.5 199q0 13 -1 26zM987 687h-269q-15 0 -26 11t-11 26v0q0 15 11 26t26 11
h269q16 0 26.5 -11t10.5 -26v0q0 -15 -10.5 -26t-26.5 -11zM816 590v269q0 16 11 26.5t26 10.5v0q15 0 25.5 -10.5t10.5 -26.5v-269q0 -15 -10.5 -26t-25.5 -11v0q-15 0 -26 11t-11 26zM525 822h-12v73h12q15 0 26 -10.5t11 -25.5v0q0 -15 -11 -26t-26 -11zM987 422v0
q-15 0 -25.5 -10.5t-10.5 -25.5v-1h72v1q0 15 -10.5 25.5t-25.5 10.5z" />
    <glyph glyph-name="404" unicode="&#xe6a6;" horiz-adv-x="1028" 
d="M340 580v-216q0 -10 -7.5 -17.5t-17.5 -7.5t-17 7.5t-7 17.5v84h-103q-50 0 -63 32t22 67l149 149q7 7 17 7t17 -7.5t7 -17.5t-7 -17l-148 -149q-8 -7 -11 -13q7 -2 17 -2h103v83q0 10 7 17t17 7t17.5 -7t7.5 -17zM813.5 604q-10.5 0 -17.5 -7t-7 -17v-83h-102
q-11 0 -17 2q3 6 10 13l149 149q7 7 7 17t-7 17.5t-17.5 7.5t-17.5 -7l-148 -149q-36 -35 -22.5 -67t63.5 -32h102v-84q0 -10 7 -17.5t17.5 -7.5t17.5 7.5t7 17.5v216q0 10 -7 17t-17.5 7zM609 583v-125q0 -51 -36 -87t-86.5 -36t-86.5 36t-36 87v125q0 50 36 86t86.5 36
t86.5 -36t36 -86zM560 583q0 30 -21.5 51.5t-52 21.5t-52 -21.5t-21.5 -51.5v-125q0 -31 21.5 -52.5t52 -21.5t52 21.5t21.5 52.5v125zM486.5 545q-10.5 0 -17.5 -7t-7 -17.5t7 -18t17.5 -7.5t18 7.5t7.5 18t-7.5 17.5t-18 7zM59 170q10 0 19 -8q4 -3 7 -3q5 0 5 7
q-6 14 -31 15q-45 -2 -48 -54q3 -52 48 -54q29 1 34 14q-1 5 -6 6q-2 0 -7 -4q-12 -5 -21 -5q-32 1 -33 43q1 41 33 43zM165 154q-7 0 -7 -6v-4q-10 10 -22 10q-33 -2 -35 -41q2 -39 35 -40q13 0 22 11v-6q0 -5 7 -5q5 0 6 5v70q-1 5 -6 6zM136 143q21 -2 22 -30
q-1 -29 -22 -29t-22 29q1 28 22 30zM195 73q6 0 6 6v44q1 18 19 20q18 -2 18 -20v-44q0 -6 8 -6q5 0 6 6v45q-1 28 -28 30q-14 0 -22 -10h-1v3q0 7 -6 7q-7 0 -7 -7v-68q0 -6 7 -6zM320 157l55 -78q4 -7 9 -6q6 0 6 7v94q-1 7 -6 7q-7 0 -7 -7v-77v0l-55 77q-4 8 -9 7
q-7 0 -6 -8v-94q0 -6 6 -6t7 6v78v0zM440 73q32 1 35 40q-3 38 -35 41q-33 -2 -36 -41q3 -39 36 -40zM440 143q20 -2 21 -30q-1 -29 -21 -29q-22 0 -23 29q1 28 23 30zM487 153q-7 0 -6 -6q-1 -5 6 -5h6v-63q0 -6 6.5 -6t6.5 6v63h6q6 0 6 5q0 6 -6 6h-6v18q0 6 -7 7
q-6 -1 -6 -7v-18h-6zM607 121q5 0 6 6q-1 6 -6 6h-29v35h32q6 0 7 6q-1 6 -7 6h-38q-7 0 -7 -7v-94q0 -6 7 -6q6 0 6 6v42h29v0zM659 73q32 1 35 40q-3 38 -35 41q-34 -2 -36 -41q2 -39 36 -40zM659 143q20 -2 21 -30q-1 -29 -21 -29q-22 0 -23 29q1 28 23 30zM739 73
q31 1 32 31v43q0 7 -6 7q-7 0 -7 -7v-42q0 -21 -19 -21t-19 21v42q0 7 -6 7q-7 0 -7 -7v-43q0 -31 32 -31zM795 73q6 0 6 6v44q1 18 19 20q18 -2 18 -20v-44q0 -6 8 -6q5 0 6 6v45q-1 28 -28 30q-14 0 -22 -10h-1v3q0 7 -6 7q-7 0 -7 -7v-68q0 -6 7 -6zM928 73q6 0 7 6v104
q-1 6 -7 7q-6 -1 -6 -7v-40h-1q-7 11 -21 11q-32 -2 -34 -41q2 -39 34 -40q16 0 21 10h1v-4q0 -6 6 -6zM901 84q-21 0 -22 29q1 28 22 30q21 -2 22 -30q-1 -29 -22 -29zM1004 73q7 0 8 7q-1 6 -8 8q-7 -2 -7 -8q0 -7 7 -7zM1004 102q6 0 7 7v65q-1 7 -7 7t-6 -7v-65
q0 -4 1.5 -5.5t4.5 -1.5z" />
    <glyph glyph-name="baoxian" unicode="&#xe615;" 
d="M512 896l-415 -185v-276q0 -127 53.5 -243.5t149 -199t212.5 -111.5q117 29 212.5 111.5t149 199t53.5 243.5v276l-415 185v0zM512 389h323q-19 -144 -107.5 -258.5t-215.5 -153.5v412h-323v263l323 143v-406v0z" />
    <glyph glyph-name="transfer" unicode="&#xe66f;" 
d="M957 365v2.5v2.5h-2q-6 14 -22 14q-9 0 -16 -6t-8 -15h-2q-5 -103 -59 -189t-143 -136t-193 -50q-128 0 -230 74t-143 191h-1q-1 13 -11.5 22t-23.5 9q-15 0 -25.5 -10.5t-10.5 -25.5v-8v-1.5v-2.5v-149q0 -10 7 -17.5t17.5 -7.5t17.5 7.5t7 17.5v93q56 -109 162.5 -175
t233.5 -66q115 0 214 54t159.5 148.5t69.5 207.5q3 5 3 10q0 1 -1 6v0zM957 365zM654 575q-8 7 -18 7t-18 -7l-107 -107l-106 106q-7 8 -17.5 8t-17.5 -7.5t-7 -17.5t7 -18l106 -105h-88q-10 0 -17 -7.5t-7 -17.5t7 -17.5t17 -7.5h99v-74h-99q-10 0 -17 -7.5t-7 -17.5
t7 -17.5t17 -7.5h99v-99q0 -10 7.5 -17t17.5 -7t17.5 7t7.5 17v99h99q10 0 17.5 7.5t7.5 17.5t-7.5 17.5t-17.5 7.5h-99v74h99q10 0 17.5 7.5t7.5 17.5t-7.5 17.5t-17.5 7.5h-88l106 106q7 7 7 17.5t-7 17.5v0zM654 575zM97 422q17 0 23 17v0q20 145 131.5 243t260.5 98
q121 0 220 -66.5t144 -174.5h1q10 -13 25 -13q13 0 22 9t9 22q0 1 -0.5 2.5l-0.5 1.5h1v145q0 10 -7.5 17.5t-17.5 7.5t-17.5 -7.5t-7.5 -17.5v-76q-60 92 -158 146t-213 54q-110 0 -205.5 -50t-157 -137t-77.5 -193h1q0 -1 -0.5 -2l-0.5 -1q0 -10 7.5 -17.5t17.5 -7.5v0z
M97 422z" />
    <glyph glyph-name="online-service" unicode="&#xe806;" 
d="M888 330v26q3 179 -101 286q-49 50 -118 76q-6 48 -51.5 81t-108 33t-108.5 -33t-51 -81q-69 -26 -118 -76q-105 -107 -101 -285v-32q-34 -35 -21 -83q11 -43 53 -58q21 -13 45 -13q25 -107 107.5 -173t197.5 -66q114 0 197 66t107 174q2 -1 3 -1q30 0 54 19q31 18 41 52
q13 52 -27 88v0zM375 500q3 -5 8 -12.5t21.5 -27t34.5 -36.5t47.5 -36t60.5 -31q30 -12 92 -25q40 -8 61 -14t49.5 -22t46.5 -39q0 -1 1 -2v-2q0 -29 -4 -55q-38 -61 -99 -98.5t-138 -45.5q-13 17 -41 17q-20 0 -33.5 -9.5t-13.5 -22t13.5 -22t33.5 -9.5q17 0 30 7.5
t15 18.5q51 6 95 24q64 26 112 75q7 7 14 15q-28 -86 -99.5 -136.5t-168.5 -50.5v0h-1q-125 0 -204.5 81.5t-79.5 210.5v16q-1 9 2 46q25 9 48 25.5t36.5 32t25 33.5t15.5 25.5t5 12.5zM513 -39zM435 239.5q0 -22.5 -16 -38t-38.5 -15.5t-38 15.5t-15.5 38t15.5 38.5t38 16
t38.5 -16t16 -38.5zM687 240q0 -22 -15.5 -37.5t-37.5 -15.5t-38 15.5t-16 37.5t16 37.5t38 15.5t37.5 -15.5t15.5 -37.5z" />
    <glyph glyph-name="fucai3d" unicode="&#xe629;" 
d="M448 293l5 -2l4 55q-21 -14 -38 -29q8 -4 15 -10.5t10 -9.5zM573 621q4 10 0.5 15.5t-12.5 7.5q-5 -20 -8 -30h13q4 2 7 7zM512 896q-104 0 -199 -40.5t-163.5 -109t-109 -163.5t-40.5 -199t40.5 -199t109 -163.5t163.5 -109t199 -40.5t199 40.5t163.5 109t109 163.5
t40.5 199t-40.5 199t-109 163.5t-163.5 109t-199 40.5zM412 639q13 36 71 36q-3 -9 -11 -37q-16 3 -21 -9t7 -18q5 0 11 1l34 103l41 2l-5 -15l-25 -2l-30 -87h5l28 83l41 2l-5 -16l-25 -1l-23 -67h4l21 63l46 2q23 -4 33.5 -26t0.5 -43q67 -7 125 -26.5t82 -35.5l25 -16
q-13 4 -36 11.5t-102 20.5t-166 16l-16 -42h-38l14 42h-4l-7 -19l-16 -1l7 20h-5v0l-14 -1v1q-2 0 -6 -1v0v0q-151 -7 -259 -47q7 6 22 15t72 29t126 30q-9 16 -2 33zM822 165q-26 -29 -71 -54.5t-85 -38.5q-28 -9 -55.5 -14.5t-40.5 -5.5l-14 -1l37 195l-18 19l-22 -111
h-132q-2 -3 -7 -8.5t-26 -17t-47 -18.5q-84 -23 -163 10q-19 10 -31 26q-13 18 -17 41.5t-2 37.5l3 15q72 1 104 0q-10 -42 20 -55q25 -6 51 3.5t34 28.5t6 34t-10.5 26.5t-18 19t-16.5 10.5l-8 4q31 12 50 26t25.5 25.5t6.5 22.5t-3.5 18t-8.5 10q-29 15 -47.5 8t-26.5 -23
l-9 -17h-107q8 49 54.5 84.5t119.5 35.5q29 0 53.5 -5.5t38.5 -13.5t24 -16t14 -14l4 -5l16 73h187q28 0 53.5 -8t41.5 -18t30 -23t18.5 -18.5t6.5 -8.5q-16 -4 -26.5 -18t-10.5 -31q0 -22 14.5 -36.5t35.5 -14.5q14 0 26 8q1 -6 1.5 -15t-1 -32.5t-6 -45t-16 -48
t-29.5 -46.5zM673 432q-42 0 -71.5 -30.5t-29.5 -74t29.5 -74t71.5 -30.5t72 30.5t30 74t-30 74t-72 30.5z" />
    <glyph glyph-name="pailie3" unicode="&#xe62b;" 
d="M255 324h-17q1 2 4 16l14 1l2 11l-14 -1l3 15l15 1l2 11l-15 -1l4 18l-26 -2q-1 -5 -3.5 -18t-4.5 -20l-14 -67h26q1 4 5 25h16zM366 392l-12 -72v-2.5v-2.5l-1 -4l-2 -2l-3 -2h-2q-7 -1 -16 1q-2 1 -14 5l6 -10l1 -2l1 -2l2 -1l2 -2l1 -1l2 -1l2 -1l2 -1l2 -1l3 -1h2
l2 -1h3h5l5 1h2l2 1h2l2 1l2 1l2 1l2 2l1 1l1 2l2 1l1 2v2l1 2l1 2q1 10 4 27q1 3 11 68q-3 0 -11.5 -0.5t-13.5 -1.5q0 -1 -0.5 -4.5t-1.5 -4.5zM223 393q-20 -2 -25 -2q0 -2 -3 -17l-13 -1l4 17q-2 0 -24 -2q-4 -14 -5 -21q-2 0 -6.5 -0.5t-6.5 -0.5l-2 -10q1 0 12 1
q0 -1 -1.5 -9t-2.5 -12q-4 -1 -9 -1h-5q-1 -4 -3 -11h8q3 0 6 1q-4 -17 -4 -19q-1 -2 -2 -3q-2 0 -6 1l-9 3l4 -9l1 -2l2 -2l2 -2l3 -2l2 -1q3 -1 5 -1q3 -1 5 -1h2l2 1h1l2 1h1l2 1l1 1l1 1l1 2l1 1l1 2l1 1q1 3 1 7l2 6h12l-5 -23h25q2 9 6.5 29t6.5 30q1 6 4.5 21.5
t4.5 24.5zM176 344v-2v0v2zM184 322h-13q0 2 1 5l1 3q6 3 11 8h1.5h1.5q-1 -3 -2 -8t-1 -8zM189 348h-12l2 10l11 1q1 3 1 4h1zM335 353l-6 -39l22 1q1 5 14 77q-2 0 -5.5 -0.5t-5.5 -0.5l1 9l-78 -6l-2 -12l18 2l-8 -14l-6 -10l-4 -6l-5 -6l-10 -6l12 -1l10 1l3 -7l1 -1
l1 -2l2 -1l2 -1l2 -1h1l-12 -17l-8 -8l-6 -5q-4 -3 -17 -11l12 -1h9l9 1q3 0 5 1l5 2l5 2l3 4l3 3q15 22 21 31zM315 365q-1 -2 -2 -5l-9 -15l-2 5v1v3l5 10l4 2t5 1v0zM315 378q2 3 4 8q11 0 22 1l-2 -12l-3 2l-2 1h-1l-2 1h-2l-10 -1h-4zM512 896q-104 0 -199 -40.5
t-163.5 -109t-109 -163.5t-40.5 -199t40.5 -199t109 -163.5t163.5 -109t199 -40.5t199 40.5t163.5 109t109 163.5t40.5 199t-40.5 199t-109 163.5t-163.5 109t-199 40.5zM927 413l4 -32l-190 6zM735 432l86 46l7 -15zM832 581l-123 -110l102 129zM658.5 651q25.5 0 44 -18.5
t18.5 -44.5t-18.5 -44.5t-44 -18.5t-44 18.5t-18.5 44.5t18.5 44.5t44 18.5zM496 723l24 -189l-55 181zM432 608l45 -87l-58 77zM315 593l128 -104l-143 80zM277 192l143 50l-131 -72zM376 161l61 49l-51 -58zM427 64l-21 7l61 117zM563 177q-47 0 -87 23.5t-63 62.5
q-2 2 -3 5h-7q-1 -6 -7.5 -6t-7.5 6h-8q-1 -6 -7.5 -6t-7.5 6l-7 1q-1 -7 -8 -7t-7 7h-8q0 -7 -7 -7t-8 7h-7q-1 -7 -8 -7t-7 7h-8q0 -7 -7.5 -7t-7.5 7h-7q0 -7 -7.5 -7t-7.5 7v0l-8 1v-1q0 -7 -7.5 -7t-7.5 7v1h-7v-1q0 -7 -7.5 -7t-7.5 7v1h-8v-1q0 -7 -7.5 -7t-7.5 7v1
h-7v-1q0 -7 -7.5 -7t-7.5 7v1h-9v-1q0 -7 -7.5 -7t-7.5 7v1h-9v-1q0 -7 -7.5 -7t-7.5 7q0 1 1 2h-8q0 -7 -7 -7q-8 0 -8 7.5t8 7.5q1 0 2 -1l2 7q-6 1 -6 8t7 7h2l2 7q-6 1 -6 7q0 8 7 8q1 0 2 -1l2 7q-7 1 -7 8t8 7h2l1 6q-6 1 -6 7q0 8 7 8h3l1 8q-6 1 -6 8t8 7h2l2 8
q-5 2 -5 7q0 8 7 8q6 0 7 -6l8 1q1 7 8 7q6 0 7 -6l9 1q0 7 8 7q6 0 7 -6h8q0 8 8 8q6 0 7 -6h8v0q0 8 7 8t8 -6h8q0 8 7 8t8 -7l8 1q0 7 7 7t8 -6l8 1q0 8 7 8q6 0 8 -7l7 1q0 7 8 7q6 0 7 -6l8 1q0 7 7 7q6 0 8 -6l8 1v0q0 7 7 7t8 -6l7 1v0q0 8 8 8q7 0 7 -7h8v1q0 7 7 7
h3q22 43 63.5 68.5t90.5 25.5q72 0 123 -51t51 -123.5t-51 -124t-123 -51.5zM790.5 51q-40.5 0 -69.5 29t-29 69.5t29 69.5t69.5 29t69 -29t28.5 -69.5t-28.5 -69.5t-69 -29zM641 349q-7 5 -20 10q18 8 27.5 20t11.5 28q3 25 -16 46q-20 21 -63 24.5t-66 -13.5
q-25 -18 -34 -44l60 -16q5 17 13 24t19 6q12 -1 17.5 -8t4.5 -18q-1 -12 -10.5 -19.5t-22.5 -6.5q-3 0 -8 1l-9 -47q14 2 22 2q14 -1 21.5 -11t6.5 -27q-2 -16 -12 -25.5t-23 -8.5q-12 1 -19.5 9.5t-9.5 29.5l-66 -4q4 -23 14.5 -39t28.5 -25q20 -10 51 -12t53 7
q21 9 34 27.5t15 39.5q2 17 -3.5 29.5t-16.5 20.5z" />
    <glyph glyph-name="miaobiao" unicode="&#xe647;" 
d="M512 47q-120 0 -205.5 85.5t-85.5 206t85.5 205.5t205.5 85t205.5 -85t85.5 -205.5t-85.5 -206t-205.5 -85.5zM512 603q-110 0 -187.5 -77.5t-77.5 -187.5t77.5 -187.5t187.5 -77.5t187.5 78t77.5 187.5t-77.5 187t-187.5 77.5zM499 564h26v-226h-26v226zM499 703h26v-69
h-26v69zM460 734h104v-26h-104v26zM668 512l18 -18l-165 -165l-18 18zM781 625l18 -18l-60 -60l-19 18z" />
    <glyph glyph-name="user-name" unicode="&#xe60d;" horiz-adv-x="1025" 
d="M994 558q-34 93 -99 166q-87 97 -209 142q-56 20 -120 27q-28 2 -42 2q-1 0 -4 0.5t-4 0.5h-7q-1 0 -3.5 -0.5t-3.5 -0.5q-85 -2 -162 -30q-94 -34 -166 -99q-98 -85 -144 -208q-20 -56 -27 -120q-2 -28 -2 -43q0 -6 -1 -8v-7q0 -1 0.5 -3.5t0.5 -3.5q2 -85 30 -163
q33 -89 92 -158q90 -104 215 -149q60 -21 120 -28q28 -2 42 -2q1 0 4 -0.5t4 -0.5h7q1 0 3.5 0.5t3.5 0.5q85 2 162 30q94 34 167 99q97 86 142 208q21 60 28 120q2 28 2 43q0 6 1 8v7q0 1 -0.5 3.5t-0.5 3.5q0 79 -29 163v0zM507 -85q-96 1 -182.5 39t-148.5 101.5t-98 151
t-35 183t39 182t102 148.5t151.5 98t182.5 35q96 -1 182.5 -39.5t148.5 -102t98 -150.5t35 -182q-1 -96 -39.5 -182.5t-102 -148.5t-151 -98t-182.5 -35v0zM710 275q-48 51 -114 74q-2 0 -6 2l9 4q76 45 89 128q11 72 -35 129q-68 85 -177 66q-66 -13 -108 -69
q-46 -63 -28 -140q15 -71 80 -111q2 -1 7 -4t7 -4l-1 -1q-1 -1 -3.5 -1.5t-3.5 -0.5q-68 -24 -113 -75q-65 -73 -67 -172q0 -16 14 -16q7 0 11 4.5t4 10.5q0 9 2 28q10 77 62 131q91 91 217 70q98 -17 155 -101q37 -54 39 -127q0 -15 15 -15q14 0 14 15q0 35 -10 69
q-16 59 -59 106v0zM531 364q-58 -8 -106 25.5t-59 90.5q-16 88 55 144q37 29 90 31q48 0 87.5 -28t53.5 -74q24 -76 -29 -139q-34 -44 -92 -50v0z" />
    <glyph glyph-name="youhui" unicode="&#xe62a;" 
d="M853 577h-94q30 10 45 34t15 46q0 39 -20 63t-62 34q-78 12 -174 -88q-34 -40 -48 -57q-17 25 -49 57q-96 100 -173 88q-38 -5 -60 -32q-20 -23 -20 -62q0 -24 16.5 -47t46.5 -33h-105q-28 0 -47 -18.5t-19 -46.5v-68q0 -26 17 -45t43 -21v-304q0 -28 19 -47t46 -19h564
q27 0 46 19t19 47v304q26 2 43 21t17 45v68q0 25 -20 43.5t-46 18.5v0zM862 521v-89v0h-324v89h324v0v0zM415 577q-66 2 -105.5 32t-42.5 62q0 15 7.5 22t24.5 10q23 4 57.5 -16.5t70.5 -60.5q20 -20 42 -49h-59v0h-9h14zM592 634q26 27 52 44t46 22.5t36.5 4t27.5 -10.5
t12 -29t-9 -39q-16 -25 -79.5 -35t-131.5 -8h-11h8l49 51q1 0 -1 -4l1 -1v0v5zM162 521v0h316v-89h-316v0v89v0zM222 65v310h256v-307l-256 -3v-1v0v1v0v1v1v10v-12zM802 68v0h-264v307h264v-298v-9z" />
    <glyph glyph-name="online" unicode="&#xe618;" 
d="M800 -41h-576q-13 0 -22.5 9.5t-9.5 22.5t9.5 22.5t22.5 9.5h576q13 0 22.5 -9.5t9.5 -22.5t-9.5 -22.5t-22.5 -9.5zM800 87h-576q-66 0 -113 44t-47 105v470q0 62 47 105.5t113 43.5h576q66 0 113 -43.5t47 -105.5v-470q0 -61 -47 -105t-113 -44zM224 791q-40 0 -68 -25
t-28 -60v-470q0 -35 28 -60t68 -25h576q40 0 68 25t28 60v470q0 35 -28 60t-68 25h-576zM730 242v0l-0.5 0.5t-0.5 1.5t-1 1q-37 107 -139 147q41 25 65.5 66.5t24.5 90.5q0 76 -53.5 129t-129.5 53t-129 -53t-53 -129q0 -49 24 -90.5t65 -66.5q-99 -38 -138 -147l-1 -1
l-0.5 -1.5l-0.5 -1.5l1 -1l-0.5 -1t-0.5 -2q0 -18 15 -18q13 0 18 12q25 65 74.5 104t125.5 39q145 0 202 -143v-1v0v-0.5t1 -0.5v0q5 -10 16 -10q15 0 15 18v5zM351 549q0 60 42.5 102.5t102.5 42.5t102.5 -42.5t42.5 -102.5t-42.5 -102.5t-102.5 -42.5t-102.5 42.5
t-42.5 102.5z" />
    <glyph glyph-name="withdraw" unicode="&#xe603;" 
d="M807 521q-32 34 -70 63q-1 1 -10 7q34 12 55 37.5t21 57.5q0 43 -35.5 72.5t-85.5 29.5q-21 0 -41 -7q-7 -3 -14 -7q-5 -2 -8 2v0q-10 14 -24 26q-34 29 -73.5 29t-73.5 -29q-14 -12 -23 -26v0q-4 -4 -9 -2q-6 4 -14 7q-20 7 -41 7q-50 0 -85.5 -29.5t-35.5 -72.5
q0 -27 15.5 -50t41.5 -37q-6 -4 -11 -8q-38 -28 -70 -62q-103 -110 -103 -233q0 -88 31 -157t85.5 -112t125.5 -65t153 -22q149 0 251 61q152 91 152 295q0 115 -104 225v0zM508 -6q-72 0 -133.5 18.5t-108.5 55t-73.5 95t-26.5 133.5q0 102 89 196q29 30 63 56q11 8 21 14
q5 3 7 5q22 15 21 37t-23 33v0v0l-1 1h-1v0l-1 1v0h-1v0h-1v0l-3 2q-19 5 -30.5 17.5t-11.5 27.5q0 19 19.5 33.5t47.5 14.5q12 0 22 -4q5 -1 7 -3l3 -1q18 -9 39 -4.5t34 20.5l2 3q5 8 15 16q19 17 39 17t38 -17q10 -8 15 -16l2 -3q13 -16 33.5 -20.5t39.5 3.5l3 2q2 2 7 3
q11 4 22 4q28 0 47.5 -14.5t19.5 -33.5q0 -15 -11.5 -27.5t-30.5 -17.5l-4 -2q-10 -4 -15 -5q-28 -9 -32 -32.5t19 -39.5q5 -3 9 -6q10 -7 20 -15q35 -26 64 -57q90 -94 90 -188q0 -79 -25.5 -138t-73 -94.5t-110 -52.5t-141.5 -17v0v0zM620 311q9 0 15.5 6.5t6.5 16
t-6.5 16t-15.5 6.5h-91l84 87q7 7 7 16t-6.5 16t-16 7t-15.5 -7l-74 -75l-73 75q-7 7 -16 7t-15.5 -7t-6.5 -16t6 -16l85 -87h-91q-10 0 -16.5 -6.5t-6.5 -16t6.5 -16t16.5 -6.5h89v-23h-89q-10 0 -16.5 -6.5t-6.5 -16t6.5 -16.5t16.5 -7h89v-65q0 -8 6.5 -13t15.5 -5
t15.5 5t6.5 13v65h90q9 0 15.5 7t6.5 16.5t-6.5 16t-15.5 6.5h-90v23h90z" />
    <glyph glyph-name="caiwu" unicode="&#xe643;" 
d="M425 210h-18q-10 0 -10 -9.5t10 -9.5h18q10 0 10 9.5t-10 9.5zM298 563h-19q-9 0 -9 -10v0q0 -9 9 -9h19q9 0 9 9v0q0 10 -9 10zM362 210h-18q-10 0 -10 -9.5t10 -9.5h18q9 0 9 9.5t-9 9.5zM407 544h18q10 0 10 9.5t-10 9.5h-18q-10 0 -10 -9.5t10 -9.5zM251.5 525
q-9.5 0 -9.5 -9v-17q0 -10 9.5 -10t9.5 10v17q0 9 -9.5 9zM362 563h-18q-10 0 -10 -9.5t10 -9.5h18q9 0 9 9q0 4 -2.5 7t-6.5 3zM298 210h-19q-9 0 -9 -9v0q0 -10 9 -10h19q9 0 9 10v0q0 9 -9 9zM763 293v0v0v0zM251.5 265q-9.5 0 -9.5 -9v-19q0 -9 9.5 -9t9.5 9v19
q0 9 -9.5 9zM251.5 460q-9.5 0 -9.5 -9v-19q0 -9 9.5 -9t9.5 9v19q0 9 -9.5 9zM782 294v0v0v0zM251.5 330q-9.5 0 -9.5 -9v-19q0 -9 9.5 -9t9.5 9v19q0 9 -9.5 9zM251.5 395q-9.5 0 -9.5 -9v-19q0 -9 9.5 -9t9.5 9v19q0 9 -9.5 9zM750 689l-24 112q-1 8 -7.5 12.5t-13.5 3.5
l-414 -67q-7 -2 -11.5 -8t-3.5 -14q0 -8 3 -22l-56 -13l9 -36q-61 -57 -96 -134.5t-35 -163.5q0 -111 55 -205t149.5 -148.5t205.5 -54.5t205.5 54.5t149.5 148.5t55 205q0 100 -45.5 187t-125.5 143zM782 442v0v18q0 10 -9.5 10t-9.5 -10v-18v0h-95q-30 0 -51 -22
t-21 -52.5t21 -52.5t51 -22h95v0q0 -4 3 -7t7 -3q9 0 9 10v0h19v-111q0 -8 -5.5 -13.5t-13.5 -5.5h-540q-8 0 -13.5 5.5t-5.5 13.5v390q0 8 6 14.5t13 6.5h540q7 0 13 -6.5t6 -14.5v-129h-19v-1zM801 423v-111h-131q-23 0 -39.5 16.5t-16.5 39.5t16.5 39.5t39.5 16.5h131v-1
zM656 612q2 2 3 4q2 -1 5 -4h-8zM724 715q3 -15 8 -39.5t8 -40.5t5 -23h-46q21 13 18 38q-2 16 -14 25.5t-26 7.5q-16 -3 -24 -16q-12 10 -27 8t-23.5 -14.5t-6.5 -27.5q1 -11 9 -21h-292q-1 4 -2 12.5t-2 15t-2 11.5zM708 798q4 -19 9 -46l-416 -65l-7 44zM282 687
q1 -7 5 -33t6 -42h-30l-17 67zM512 -30q-106 0 -196 52t-142.5 141.5t-52.5 195.5q0 80 31 151.5t85 124.5l6 -23h-1q-15 0 -26 -12.5t-11 -28.5v-389q0 -15 11 -26t26 -11h540q15 0 26 11t11 26v389q0 16 -11 28.5t-26 12.5h-17q-3 22 -8 50q68 -55 107 -134t39 -169
q0 -106 -52.5 -195.5t-142.5 -141.5t-196 -52zM680 563h-18q-9 0 -9 -9.5t9 -9.5h18q10 0 10 9.5t-10 9.5zM617 563h-18q-10 0 -10 -9.5t10 -9.5h18q10 0 10 9.5t-10 9.5zM745 563h-19q-9 0 -9 -10v0q0 -9 9 -9h19q9 0 9 9v0q0 10 -9 10zM642 368q0 -11 8.5 -19.5t20 -8.5
t19.5 8t8 20t-8 20t-20 8q-12 -1 -20 -9t-8 -19zM772.5 525q-9.5 0 -9.5 -9v-17q0 -10 9.5 -10t9.5 10v17q0 9 -9.5 9zM589 200.5q0 -9.5 10 -9.5h18q10 0 10 9.5t-10 9.5h-18q-10 0 -10 -9.5zM553 563h-19q-9 0 -9 -9.5t9 -9.5h19q9 0 9 9.5t-9 9.5zM553 210h-19
q-9 0 -9 -9.5t9 -9.5h19q9 0 9 9.5t-9 9.5zM490 210h-19q-9 0 -9 -9.5t9 -9.5h19q9 0 9 9.5t-9 9.5zM471 544h19q9 0 9 9.5t-9 9.5h-19q-9 0 -9 -9.5t9 -9.5zM726 191h19q9 0 9 10v0q0 9 -9 9h-19q-9 0 -9 -9v0q0 -10 9 -10zM772.5 229q9.5 0 9.5 9v18q0 10 -9.5 10
t-9.5 -10v-18q0 -9 9.5 -9zM662 191h18q10 0 10 9.5t-10 9.5h-18q-9 0 -9 -9q0 -4 2.5 -7t6.5 -3zM559 640l-3 20l-221 -27l3 -20z" />
    <glyph glyph-name="shark" unicode="&#xe602;" 
d="M218 715l-0.5 -1.5l-0.5 -1.5q1 1 1 3zM258 742h-0.5h-0.5h1zM219 718q0 -1 -0.5 -2l-0.5 -1v0zM257 742zM476.5 483q21.5 0 37 15t15.5 37t-15.5 37t-37 15t-37 -15t-15.5 -37t15.5 -37t37 -15zM852 437q0 14 -9 25q-4 6 -11 14q-37 43 -90 85l53 58q5 5 5 11q0 9 -7 13
v0l-1 1q-30 17 -70.5 27.5t-79.5 12.5t-63.5 2t-44.5 -2q-132 53 -275 58h-1.5h-0.5v0q-27 0 -38 -24q0 -1 -0.5 -2l-0.5 -1q0 -2 -1 -4q-76 -231 -20 -466q25 -106 69 -187v0q10 -18 30 -20h0.5h0.5h1q30 -3 58 -3q71 0 133.5 15.5t109.5 43t81 56t62 61.5q48 58 75 117.5
t34 100.5v0v1q1 4 1 7zM476.5 607q29.5 0 51 -21t21.5 -51t-21.5 -51t-51 -21t-50.5 21t-21 51t21 51t50.5 21zM223 265v2q41 1 81 12l-32 -68zM356 66h-16q-17 0 -36 2q-10 1 -14 9q-5 9 -5 11h3.5h3.5q119 0 184 70q29 31 45.5 73t20 83t3.5 65t-3 43v0q-1 13 -15 13
q-6 0 -10 -4v-1h-1q-14 -14 -35 -30.5t-61 -43.5t-94 -44.5t-108 -19.5q-32 172 9 342v0q2 8 8 13t14 5q3 0 7 -1q0 -1 0.5 -1h0.5h1q68 -28 136 -69q-12 -21 -12 -46q0 -39 27.5 -67t67.5 -28q39 0 67 29q107 -97 177 -218q2 -4 2 -8q0 -6 -4 -11v0v-1q-138 -165 -363 -165
zM338 186l67 -50q-38 -18 -87 -22zM328 285q40 13 80 35l-13 -80zM426 330q35 20 67 45l1 -72zM499 246q-15 -42 -42 -71l-6 -6l-15 76z" />
    <glyph glyph-name="lottery" unicode="&#xe659;" 
d="M630.5 590.5q-3.5 5.5 -9 8.5t-13.5 3t-13.5 -3t-9 -8.5t-5 -12.5t-1.5 -15t1.5 -15t5 -12.5t9 -9t13.5 -3.5t14 3q8 4 11 12l3 9q1 7 1 15t-1.5 15.5t-5 13zM756 412q-13 -4 -28 -5l17 2q-10 -2 -20 -2h9h-12q-39 0 -69 23q-29 -25 -71 -25q-5 0 -10 1q-36 2 -61 23
q-29 -22 -69 -22t-69 23q-30 -25 -71 -25q-6 0 -11 1h-3h-2q-4 1 -6 1t-5 1q-14 3 -26 9l-1 1l-6 4l1 -1q-4 3 -8 5l21 -12v-299q0 -14 10.5 -24.5t24.5 -10.5h442q14 0 24.5 10.5t10.5 24.5v301l-10 -4h-1.5h-0.5zM621 284q0 -6 -5 -14q-11 -16 -26 -31t-33 -27
q-8 -4 -14 -3t-9 8t-0.5 11t8.5 8q16 9 29 23q33 32 47 76q-17 -39 -14 -39q4 2 10 -2q7 -4 7 -10zM568 321.5q10 9.5 19 22.5q3 5 6 7.5t5.5 4t5 1t4.5 -2.5q8 -4 7.5 -10t-7.5 -15q-7 -11 -19.5 -24t-29.5 -24q-8 -5 -13 -4t-9 7t-1.5 11t8.5 9q14 8 24 17.5zM410 339.5
q4 3.5 12 3.5q13 0 26 1q27 1 53 5q-7 -1 -10 -1q1 0 0 0q3 0 6 1q11 2 20 4q10 2 15 0.5t7 -8.5q2 -8 -1 -11t-13 -6q-10 -2 -23 -4q-45 -7 -95 -7q25 1 27 1l-31 -1q15 0 23 1h1q-7 -1 -13 -1q1 0 0 1q-3 1 -4 2q-4 3 -4 10q0 6 4 9.5zM533 306q-3 -11 -6 -18t-7 -15
q-3 -6 -8.5 -8t-10.5 1q-6 3 -6 7.5t4 12.5t6 14l4 12q3 14 15 11q7 -1 9 -6t0 -11zM445 268q-1 -4 -8 -6q-13 -3 -16 12q-5 21 -15 39q-9 16 0 0q-5 9 -10 17q14 -23 16 -23q2 4 9 6q6 2 9.5 0t6.5 -9q12 -31 14 -66q-1 9 -3 19l-1 10v-2q0 -7 1 -11l-3 15v-1zM513.5 166.5
q-5.5 1.5 -8.5 8.5q-6 10 -10 16q-6 7 -10 13v-56q0 -8 -2.5 -11t-9.5 -3t-10 3.5t-3 10.5v49q-7 -10 -16 -20q-29 -31 -69 -47l37 22h-1h-1q-6 0 -9 6q-4 6 -2 11t9 10q43 33 67 80q-6 -10 -23 -35l2 4h-39q-7 0 -10 3t-3 9t3 9t10 3h45v7q0 6 1 9t4 4q-2 4 -3 9
q-7 32 -20 61l15 -42q-2 7 -0.5 11t7.5 5q8 2 11.5 0t6.5 -11q2 -6 3 -10q6 -26 6 -56l-4 38v0q-1 -4 -4 -6q2 -2 2 -5v-7v-7h36q7 0 10.5 -2.5t3.5 -9.5q0 -6 -4 -9t-10 -3h-25q10 -11 17 -19q101 -127 146 -283l-128 254v-1v0q1 -6 -5.5 -10t-12 -2.5zM621 205
q-16 -25 -36 -42.5t-47 -28.5q-3 -1 -6.5 -1.5t-6 0.5t-4.5 3t-3 5q-2 7 1.5 11.5t9.5 7.5q13 6 23 12t18 13q23 20 34 48l-9 -19q1 2 4 5q4 7 8 10t10 0q15 -8 4 -24zM438.5 590.5q-3.5 5.5 -9 8.5t-13.5 3t-13.5 -3t-9 -8.5t-5 -12.5t-1.5 -15t1.5 -15t5 -12.5t9 -9
t13.5 -3.5t14 3q7 4 10 12l3 9q2 7 2 15t-1.5 15.5t-5 13zM522 896q-107 2 -204.5 -39t-167.5 -111t-111 -167.5t-39 -204.5q2 -101 42.5 -193t107.5 -159t159 -107.5t193 -42.5q107 -2 204.5 39t167.5 111t111 167.5t39 204.5q-2 101 -42.5 193t-107.5 159t-159 107.5
t-193 42.5zM823 489v-2q-2 -29 -23 -50v-322q0 -28 -20 -47.5t-47 -19.5h-442q-27 0 -47 19.5t-20 47.5v320q-23 23 -23 54q0 12 4 24l29 159q4 21 23 34.5t44 13.5h429q25 0 44 -14.5t22 -35.5l24 -158q3 -11 3 -21v-2zM788 506l-23 160q-2 9 -12 15.5t-23 6.5h-429
q-13 0 -23 -6.5t-12 -15.5l-30 -161q0 -2 -2 -4q-1 -6 -1 -12q0 -20 17 -34l0.5 -0.5l0.5 -0.5q20 -17 51 -17q38 0 58 25q5 6 12.5 6t12.5 -6q20 -23 57 -23q29 0 49 16q5 4 8 7q4 5 10 5h-1h2h0.5h0.5v0q8 0 13 -5q20 -25 58 -25t59 25q4 6 11.5 6t12.5 -6q21 -23 57 -23
h7q2 0 5 1h1.5h0.5q9 1 17 5l-11 -4q11 3 21 8l-14 -6l4 2h1h1q1 1 4 2q1 1 2 1q12 6 20 16l-4 -5q3 3 7 9q-1 -2 1 0q1 3 3 5v1q3 8 3 15v1v1q0 6 -2 12q-1 2 -1 4v-1zM462 539.5q-3 -10.5 -9 -18t-15.5 -12t-21.5 -4.5t-21.5 4.5t-15.5 12t-9 18t-3 23.5q0 12 2.5 22
t8.5 18t15.5 12.5t22.5 4.5q12 0 21.5 -4.5t15.5 -12.5t9 -18t3 -22.5t-3 -23zM541 508h-57q-2 0 -4 4t-2 9q0 2 1 4.5t2 5.5q1 1 4.5 4t8.5 7.5t11 9.5q17 18 26 42l-10 -20l1 1q3 6 3 12t-3.5 9.5t-8.5 3.5q-6 0 -9 -4t-3 -11q0 -5 -2.5 -7t-7.5 -2q-6 0 -8.5 1.5
t-2.5 7.5q0 15 8.5 24t26.5 9q14 0 22 -8t8 -22q0 -5 -2 -10.5t-5 -10.5q-10 -18 -26 -29q6 0 -14 -14q-9 -7 -18 -12l10 5q-10 -7 -32 -17l15 6q-12 -8 -35 -15l103 35q5 0 5 -9t-5 -9zM654 539.5q-3 -10.5 -9 -18t-15 -12t-22 -4.5q-12 0 -21 4.5t-15.5 12t-9.5 18
t-3 23.5q0 12 3 22t9 18t15 12.5t22 4.5t22 -4.5t15 -12.5t9 -18t3 -22.5t-3 -23z" />
    <glyph glyph-name="loading" unicode="&#xe61c;" 
d="M843 154q0 -6 6 -6t6 6v0q0 6 -6 6v0v0q-6 0 -6 -6v0zM715 21q0 -5 3.5 -8t8 -3t8 3t3.5 8t-3.5 8.5t-8 3.5t-8 -3.5t-3.5 -8.5zM541 -47q0 -7 5.5 -12.5t12.5 -5.5t12 5.5t5 12.5t-5 12t-12 5t-12.5 -5t-5.5 -12zM355 -38q0 -10 6.5 -16.5t16.5 -6.5t16.5 6.5t6.5 16.5
t-6.5 16.5t-16.5 6.5t-16.5 -6.5t-6.5 -16.5zM189 47q0 -12 8.5 -20.5t20.5 -8.5t20.5 8.5t8.5 20.5t-8.5 20.5t-20.5 8.5t-20.5 -8.5t-8.5 -20.5zM75 191.5q0 -14.5 10 -25t24.5 -10.5t24.5 10.5t10 25t-10 24.5t-24.5 10t-24.5 -10t-10 -24.5zM32 368.5
q0 -16.5 11.5 -28.5t28.5 -12t29 12t12 28.5t-12 28.5t-29 12t-28.5 -12t-11.5 -28.5zM67 544.5q0 -19.5 13.5 -33t33 -13.5t33 13.5t13.5 33t-13.5 33t-33 13.5t-33 -13.5t-13.5 -33zM173 686.5q0 -21.5 15.5 -37t37 -15.5t37 15.5t15.5 37t-15.5 37t-37 15.5t-37 -15.5
t-15.5 -37zM329 768q0 -24 17 -41t41 -17t41 17t17 41t-17 41t-41 17t-41 -17t-17 -41zM504 773.5q0 -26.5 19 -45.5t45.5 -19t45 19t18.5 45.5t-18.5 45t-45 18.5t-45.5 -18.5t-19 -45zM665 701q0 -29 20 -49.5t49 -20.5t49.5 20.5t20.5 49.5t-20.5 49.5t-49.5 20.5
t-49 -20.5t-20 -49.5zM779 565.5q0 -31.5 22 -53.5t53 -22t53 22t22 53.5t-22 53.5t-53 22t-53 -22t-22 -53.5zM824 390q0 -34 23.5 -57.5t57.5 -23.5t57.5 23.5t23.5 57.5t-23.5 57.5t-57.5 23.5t-57.5 -23.5t-23.5 -57.5z" />
    <glyph glyph-name="baobiao" unicode="&#xe679;" 
d="M205 0q-33 0 -55 24.5t-22 58.5v685h563q33 0 55 -24.5t22 -58.5v-237h64v256q0 53 -34.5 90.5t-87.5 37.5h-646v-768q0 -53 34.5 -90.5t87.5 -37.5h262v64h-243zM832 384q-36 0 -62 -8t-38.5 -18t-19 -27t-7.5 -26t-1 -23v-39q-19 13 -64 13q-36 0 -62 -8t-38.5 -18
t-19 -27t-7.5 -26t-1 -23v-116q0 -12 1 -20.5t7.5 -25.5t19 -28t38.5 -19.5t62 -8.5q58 0 96 26q38 -26 96 -26q36 0 62 8.5t38.5 19.5t19 28t7.5 25.5t1 20.5v244q0 12 -1 20.5t-7.5 25.5t-19 28t-38.5 19.5t-62 8.5zM640 192q29 0 46.5 -9t17.5 -23t-17.5 -23t-46.5 -9
t-46.5 9t-17.5 23t17.5 23t46.5 9zM640 6q-28 0 -46 8t-18 18v58q19 -20 64 -20q14 0 30 5t25 10l9 5v-58q0 -10 -18 -18t-46 -8zM832 320q29 0 46.5 -9t17.5 -23t-17.5 -23t-46.5 -9t-46.5 9t-17.5 23t17.5 23t46.5 9zM832 6q-28 0 -46 8t-18 18v58q19 -20 64 -20
q14 0 30 5t25 10l9 5v-58q0 -10 -18 -18t-46 -8zM832 128q-28 0 -46 8t-18 18v57q19 -19 64 -19q14 0 30 5t25 9l9 5v-57q0 -4 -7.5 -10t-23 -11t-33.5 -5zM672 608h-448q-14 0 -23 -9t-9 -23t9 -23t23 -9h448q14 0 23 9t9 23t-9 23t-23 9zM576 416h-352q-14 0 -23 -9
t-9 -23t9 -23t23 -9h352q14 0 23 9t9 23t-9 23t-23 9zM416 224h-192q-14 0 -23 -9t-9 -23t9 -23t23 -9h192q14 0 23 9t9 23t-9 23t-23 9z" />
    <glyph glyph-name="hot" unicode="&#xe636;" 
d="M513 896q4 -4 9.5 -12t12 -38t2.5 -66q-5 -38 -48 -103t-89.5 -118t-98.5 -105q-35 -36 -64 -82t-50.5 -102t-17.5 -118.5t38 -116.5q27 -43 54.5 -75.5t45.5 -48t35 -25.5t22 -12t8 -2v0q-2 4 -5 12t-9.5 32.5t-9.5 49t-0.5 60t12.5 67.5q25 78 69.5 128.5t83.5 69.5
q0 -17 3.5 -39.5t12 -53.5t14 -48t17.5 -53.5t12 -38.5q16 -48 12 -139q27 12 51 50.5t20 53.5q26 -26 39.5 -76t7.5 -75q26 12 52.5 35t51.5 58.5t39 87t10 110.5q-3 46 -14 86t-24 63.5t-26 41t-22 23.5l-8 7q-3 -36 -20 -73t-35 -57.5t-28 -20.5l12 33t13.5 36.5
t13.5 40.5t11 44.5t8 50t3.5 57t-2.5 64.5q-5 55 -31 112.5t-61 101.5t-69.5 76t-62.5 47z" />
    <glyph glyph-name="quanbu" unicode="&#xe621;" 
d="M513.5 893q-103.5 0 -198 -40.5t-163 -109t-109 -163t-40.5 -198t40.5 -198t109 -162.5t163 -108.5t198 -40.5t198 40.5t162.5 108.5t108.5 162.5t40.5 198t-40.5 198t-108.5 163t-162.5 109t-198 40.5zM499 176q0 -16 -12 -28t-28 -12h-130q-17 0 -28.5 12t-11.5 28v130
q0 17 11.5 28.5t28.5 11.5h130q16 0 28 -11.5t12 -28.5v-130zM499 416q0 -17 -12 -28.5t-28 -11.5h-130q-17 0 -28.5 11.5t-11.5 28.5v130q0 16 11.5 28t28.5 12h130q16 0 28 -12t12 -28v-130zM738 176q0 -16 -11.5 -28t-28.5 -12h-129q-17 0 -28.5 12t-11.5 28v130
q0 17 11.5 28.5t28.5 11.5h129q17 0 28.5 -11.5t11.5 -28.5v-130zM754 453l-92 -92q-12 -12 -28.5 -12t-28.5 12l-92 92q-11 11 -11 27.5t11 28.5l92 92q12 12 28.5 12t28.5 -12l92 -92q11 -12 11 -28.5t-11 -27.5z" />
    <glyph glyph-name="new1" unicode="&#xe626;" 
d="M923 656h-819q-35 0 -59.5 -24t-24.5 -58v-287q0 -34 24.5 -58t59.5 -24h85v-82l126 82h608q34 0 59 24t25 58v287q0 34 -25 58t-59 24zM336 305h-55l-108 166q-9 13 -13 20v0q1 -13 1 -40v-146h-51v256h59l104 -161q10 -16 13 -20v0q-1 9 -1 35v146h51v-256zM546 305
h-151v256h145v-45h-90v-60h84v-44h-84v-62h96v-45zM850 305h-60l-44 167q-3 14 -4 28h-1q-1 -17 -4 -28l-45 -167h-62l-68 256h59l38 -174q3 -11 4 -28h1q1 13 5 29l47 173h58l43 -175q3 -10 4 -27h1q1 14 4 28l37 174h55z" />
    <glyph glyph-name="message" unicode="&#xe60b;" 
d="M880 672h-608q-34 0 -57 -23t-23 -57v-416q0 -34 23 -57t57 -23h5l-19 -102q-3 -16 3.5 -30t20.5 -22q10 -6 24 -6q19 0 32 13l160 147h382q34 0 57 23t23 57v416q0 34 -23 57t-57 23zM912 176q0 -13 -9.5 -22.5t-22.5 -9.5h-400l-176 -160l30 160h-62q-13 0 -22.5 9.5
t-9.5 22.5v416q0 13 9.5 22.5t22.5 9.5h608q13 0 22.5 -9.5t9.5 -22.5v-416zM752 832h-608q-34 0 -57 -23t-23 -57v-416q0 -34 23 -57t57 -23q10 0 17 7t7 17t-7 17t-17 7q-13 0 -22.5 9.5t-9.5 22.5v416q0 13 9.5 22.5t22.5 9.5h608q13 0 22.5 -9.5t9.5 -22.5v-42
q0 -9 7 -16.5t17 -7.5t17 7.5t7 16.5v42q0 34 -23 57t-57 23zM368 392q0 -17 11.5 -28.5t28.5 -11.5t28.5 11.5t11.5 28.5t-11.5 28.5t-28.5 11.5t-28.5 -11.5t-11.5 -28.5zM528 392q0 -17 11.5 -28.5t28.5 -11.5t28.5 11.5t11.5 28.5t-11.5 28.5t-28.5 11.5t-28.5 -11.5
t-11.5 -28.5zM688 392q0 -17 11.5 -28.5t28.5 -11.5t28.5 11.5t11.5 28.5t-11.5 28.5t-28.5 11.5t-28.5 -11.5t-11.5 -28.5z" />
    <glyph glyph-name="zaixianrenshu1" unicode="&#xe6bb;" 
d="M767 664q-9 22 -21 41q-38 60 -99.5 95t-134.5 35q-114 0 -194.5 -80.5t-80.5 -194.5q0 -115 82 -196l8 -8q17 -16 37 -29q31 18 66 28q-27 11 -49 28q-6 4 -11 9q-37 30 -57.5 74t-20.5 94q0 91 64.5 155.5t155.5 64.5t155.5 -64.5t64.5 -155.5q0 -50 -20.5 -94
t-56.5 -74q-6 -5 -11 -9q-23 -17 -50 -28q35 -10 66 -28q20 13 37 29q4 4 9 8q81 81 81 196q0 54 -20 104zM864 76q-2 89 -44.5 165t-113.5 123q-25 16 -51 28q-6 -5 -11 -9q-23 -17 -50 -28q35 -10 66 -28q66 -38 106.5 -104.5t42.5 -146.5v-6q0 -19 -2 -36q-1 -12 -4 -23
h-103.5h-187.5h-139h-108.5h-43.5q-6 29 -6 59q0 81 40.5 149.5t108.5 107.5q31 18 66 28q-27 11 -49 28q-6 4 -11 9q-27 -12 -51 -28q-73 -48 -116 -126t-43 -168q0 -59 19 -115h666q13 38 17 79q2 18 2 36v0v6zM746 707q16 -28 22 -43q62 -9 104 -56.5t42 -110.5
q0 -79 -60 -129q-4 -4 -8 -7q-18 -13 -38 -21q27 -8 50 -21q16 9 29 21q3 3 6 7q63 62 63 150q0 86 -61.5 148t-148.5 62zM893 347q-18 12 -39 21q-4 -4 -8 -7q-18 -13 -38 -21q27 -8 50 -21q53 -30 84 -82.5t31 -115.5q0 -22 -5 -45h-103q1 -26 -2 -42h137q15 42 15 87
q0 70 -33 129.5t-89 96.5zM67 497q0 -88 63 -150q3 -4 6 -7q14 -12 29 -21q24 13 50 21q-20 8 -38 21q-4 3 -8 7q-60 50 -60 129q0 63 42 110.5t104 56.5q3 7 8.5 18t9.5 18l5 7q-87 0 -149 -62t-62 -148zM9 121q0 -45 14 -87h137q-2 16 -2 42h-103q-4 23 -4 45v0
q0 63 31 115.5t83 82.5q24 13 50 21q-20 8 -38 21q-4 3 -8 7q-20 -9 -39 -21q-56 -37 -88.5 -96.5t-32.5 -129.5z" />
    <glyph glyph-name="new2" unicode="&#xe614;" 
d="M890 624h-759q-31 0 -52 -21t-21 -53v-361q0 -31 21 -52.5t52 -21.5h759q31 0 52 21.5t21 52.5v361q0 32 -21 53t-52 21zM320 250h-51l-99 195v-195h-32v233h44l103 -201h3v201h32v-233zM400 384h125v-32h-125v-6v0q0 -61 38 -61h90v-32h-90q-30 0 -48 22q-19 24 -19 71
v54q0 38 20 58t51 25v0h86v-32h-83q-42 -10 -42 -51q-3 -6 -3 -16zM816 250h-45l-45 185l-51 -185h-48l-67 233h35l58 -192h3l51 192h39l51 -201l61 201h32z" />
    <glyph glyph-name="hongbao" unicode="&#xe66d;" 
d="M954 -45q0 -24 -16.5 -40.5t-40.5 -16.5h-762q-23 0 -40 16.5t-17 40.5v856q0 24 17 40.5t40 16.5h762q24 0 40.5 -16.5t16.5 -40.5v-856zM954 804q0 23 -16.5 39.5t-40.5 16.5h-762q-23 0 -40 -16.5t-17 -39.5v-146q68 -114 184.5 -181.5t253.5 -67.5t253.5 67.5
t184.5 181.5v146v0zM954 811q0 24 -16.5 40.5t-40.5 16.5h-762q-23 0 -40 -16.5t-17 -40.5v-146q68 -113 184.5 -180.5t253.5 -67.5t253.5 67.5t184.5 180.5v146v0zM516 429zM381 429q0 -56 39.5 -95.5t95.5 -39.5t95.5 39.5t39.5 95.5t-39.5 95.5t-95.5 39.5t-95.5 -39.5
t-39.5 -95.5zM516 434zM381 433.5q0 -55.5 39.5 -95t95.5 -39.5t95.5 39.5t39.5 95t-39.5 95.5t-95.5 40t-95.5 -40t-39.5 -95.5zM575 402q4 0 7 -3.5t3 -7.5t-3 -7.5t-7 -3.5v0h-48v-25v0q0 -4 -3 -7.5t-7 -3.5t-7 3.5t-3 7.5v0v25h-49q-5 0 -8 3.5t-3 7.5t3 7.5t8 3.5v0
h49v21l-49 1v0q-5 0 -8 3t-3 7.5t3 7.5t8 3v0h49v1l-49 58v0q-8 7 -1 15t15 1l44 -55l44 53q8 7 14.5 -1t-0.5 -15v0l-47 -57h48q4 0 7 -3t3 -7.5t-3 -7.5t-7 -3v-1h-48v-21h48z" />
    <glyph glyph-name="report" unicode="&#xe681;" 
d="M451.5 -128q-91.5 0 -175 36t-144 96.5t-96.5 144t-36 175t36 175t96.5 144t144 96.5t175.5 36h31v-420h420v-31q0 -92 -36 -175.5t-96.5 -144t-144 -96.5t-175 -36zM420 712q-98 -10 -179.5 -63.5t-129 -139.5t-47.5 -185q0 -107 51.5 -196t140.5 -140.5t196 -51.5
q99 0 185 47.5t139.5 129t63.5 179.5h-420v420zM1018 413h-484v483h32q125 0 229 -59.5t163.5 -163t59.5 -229.5v-31zM598 476h356q-9 142 -110.5 242t-245.5 114v-356z" />
    <glyph glyph-name="wangqihuigu" unicode="&#xe61d;" 
d="M181 570q49 90 134 149.5t186 59.5q110 0 194.5 -53.5t128 -143t43.5 -198.5h56q0 103 -32.5 188t-90 142t-134.5 88t-165 31q-120 0 -214.5 -58.5t-152.5 -160.5l-71 68v-167h168zM475 366l-131 -113l38 -37l150 130v262h-56v-242h-1zM718 291v-56h243v56h-243zM718 -65
h243v56h-243v-56v0zM718 85h243v56h-243v-56zM587 235h74v56h-74v-56zM587 -65h74v56h-74v-56v0zM587 85h74v56h-74v-56zM456 29q-214 25 -315 259l-3 3h-56q37 -130 137 -217.5t237 -100.5q3 -1 29 -1t27 1v56q-8 -1 -27 -1t-29 1zM456 29z" />
    <glyph glyph-name="bancard" unicode="&#xe622;" horiz-adv-x="1072" 
d="M946 547h-21l-98 249q-8 22 -30.5 32t-44.5 2l-651 -254q-24 -8 -34 -31q-4 -10 -4 -23q0 -11 4 -21l121 -310v-158q0 -25 17 -42t41 -17h700q24 0 41 17t17 42v455q0 25 -17 42t-41 17zM889 547h-173l150 58l23 -58v0zM168 334l20 7v-59l-20 51v1zM188 488v-9l-67 -26
l-24 60q-1 5 -1 9q0 6 2 10q5 11 16 14l649 253q5 1 9 1q18 0 24 -16l24 -59l-458 -178h-116q-24 0 -41 -17t-17 -41v-1v0zM898 104v0q7 0 11.5 -5t4.5 -11.5t-4.5 -11.5t-11.5 -5h-589q-7 0 -11.5 5t-4.5 11.5t4.5 11.5t11.5 5h589zM309 400q-7 0 -11.5 4.5t-4.5 11.5
t4.5 12t11.5 5h258q7 0 11.5 -5t4.5 -12t-4.5 -11.5t-11.5 -4.5h-258v0zM357 209v0q-27 0 -45.5 18.5t-18.5 45t18.5 45t45.5 18.5h77q26 0 45 -18.5t19 -45t-19 -45t-45 -18.5h-77v0z" />
    <glyph glyph-name="edit-user-info" unicode="&#xe600;" 
d="M421 -62h-30q-141 3 -223 26q-51 15 -80 39q-36 30 -36 72v26q0 59 84 118q64 44 157 78q7 3 11 9q6 11 0 30q-40 43 -66 103q-27 66 -27 131q0 103 62 164q58 56 146 56t146 -56q63 -61 63 -164q0 -37 -22.5 -93.5t-39 -85.5t-31.5 -52q-10 -35 3 -42q11 -4 24 -8
l36 -14l-127 -125q-12 -11 -16 -26l-39 -131q-3 -12 -1 -26zM419 742q-29 0 -56.5 -9.5t-51 -28.5t-38 -53.5t-14.5 -80.5q0 -54 22.5 -109.5t60.5 -94.5l4 -4l2 -4q15 -39 1 -70q-13 -27 -39 -36q-91 -33 -150.5 -76t-59.5 -75v-26q0 -38 69.5 -61t196.5 -27q1 10 4 19
l38 132q8 27 30 47l73 72q-13 9 -20 23q-16 31 -1 77l1 3l2 3q28 42 57 104.5t29 102.5q0 46 -14.5 80.5t-38 53.5t-51 28.5t-56.5 9.5zM475 -62q-16 0 -27 12q-17 16 -10 38l39 132q3 11 12 18l277 276l72 -72v0v0v0l76 -76l-278 -276q-8 -8 -18 -11l-132 -39q-5 -2 -11 -2
v0zM519 105l-35 -119l119 35v0l247 245l-14 14v0l-60 61v0l-10 9zM920 274l-146 147l33 33q18 19 44 19q27 0 45 -19l57 -57q19 -18 19 -44.5t-18 -44.5zM838 421l82 -82l2 1q5 5 4.5 12.5t-5.5 12.5l-57 57q-5 5 -13 5q-7 0 -12 -5z" />
    <glyph glyph-name="dog" unicode="&#xe62f;" 
d="M895 -8l83 183l-14 13q-1 1 -4.5 6t-11.5 20t-14 34.5t-11.5 53t-6.5 71.5v56q-40 -20 -106 -20q-140 0 -211 72q-16 16 -28 36h-194v-377q84 0 148.5 -3.5t113 -13t79.5 -18t62 -27t46.5 -30.5t45.5 -37q9 -8 23 -19zM326 613.5q0 -44.5 -29.5 -44.5t-29.5 44.5
t29.5 44.5t29.5 -44.5zM269 466v-312l-79 -174h59l74 162v377h-27q-83 0 -128.5 31t-56.5 77h36q35 0 56 11.5t64 50.5q28 25 47 42l18 16l-69 99l-44 -31l41 -60q-11 -9 -29 -26q-38 -34 -50.5 -41.5t-33.5 -7.5h-93v-27q0 -72 55 -126.5t160 -60.5zM486 627
q4 -111 75 -183q87 -87 249 -87q28 0 53 4q4 -129 51 -197l-38 -84q-52 41 -102.5 63.5t-148 37t-248.5 14.5v-54q51 0 95 -1l-97 -214h59l96 211q94 -6 158 -22l-62 -135h59l55 119q54 -21 113 -70l-47 -103h59l113 249l-14 13q-1 1 -4.5 6t-11.5 20t-14 34.5t-11.5 53
t-6.5 71.5q52 18 80 55.5t28 90.5q0 71 -45 116t-117 45v-53q49 0 78.5 -29.5t29.5 -78.5q0 -32 -14 -54.5t-39 -33.5t-50.5 -15.5t-56.5 -4.5q-140 0 -211 71q-40 41 -53 99q17 -11 35 -19l23 48q-63 30 -110 86t-109 158l-46 -28q44 -71 77 -117.5t70 -81.5z" />
    <glyph glyph-name="goat" unicode="&#xe631;" 
d="M548 249q26 37 67 84.5t74 77.5h-581q0 -23 -0.5 -33t-0.5 -24.5t-2 -21t-2.5 -15.5t-5.5 -15t-8 -12.5t-11.5 -14.5t-14.5 -14l-19 -19l-13 -13l36 -88h417q24 49 64 108zM608 751q-66 37 -123 37v54q71 0 149 -44q105 -58 172 -151q-95 -74 -159 -74h-108v54h108
q30 0 80 31q-21 23 -56 50.5t-63 42.5zM832.5 554q-29.5 0 -29.5 -44.5t29.5 -44.5t29.5 44.5t-29.5 44.5zM1024 276q0 205 -88.5 366t-248.5 251l-26 -47q72 -41 128 -97t88.5 -111t54 -119t29 -114t9.5 -102h-85q-28 55 -87 102l-17 13l-16 -13q-110 -87 -188 -210h-474
l-8 21q47 46 57 75.5t10 119.5v54h485v54h-485q0 60 13.5 88.5t52.5 49.5l-25 47q-56 -30 -75.5 -72.5t-19.5 -112.5v-108q0 -23 -0.5 -33t-0.5 -24.5t-2 -21t-2.5 -15.5t-5.5 -15t-8 -12.5t-11.5 -14.5t-14.5 -14l-19 -19l-13 -13l80 -195h58l-44 107h103l44 -107h59
l-44 107h259q-61 -115 -61 -215h54q0 97 69 215h79q6 0 10 -3.5t4 -9.5v-94h54v94q0 28 -20 47.5t-48 19.5h-44q61 88 138 154q45 -40 63 -86.5t18 -121.5h54q0 64 -11 108h119v27z" />
    <glyph glyph-name="dragon" unicode="&#xe633;" 
d="M366 552l153 153q24 20 61 16.5t92 -37.5t118 -95q-27 -18 -45 -32q-19 -17 -59 -57q-6 -6 -79 -82q-11 13 -34 36l-80 79l-54 -54zM862 384q0 -35 -30.5 -58t-76.5 -23q-51 0 -103 9.5t-82.5 19t-82.5 28.5q-48 17 -74.5 25.5t-70 17t-84.5 8.5q-64 0 -114.5 -17.5
t-81 -46.5t-46.5 -63.5t-16 -71.5h54q13 17 50.5 27t72.5 10q59 0 150 -14.5t142 -33.5q8 -2 38 -13t40.5 -15t38 -12t46 -11t46.5 -6t56 -3q95 0 138.5 61t43.5 182h-54zM552 -128q-69 0 -156 27q-22 7 -33.5 10.5t-37 9t-43.5 6.5t-53 3t-65 -2l-4 54q32 2 60 2.5t52 -2
t41.5 -5t38 -7.5t31 -8t29.5 -9q79 -25 140 -25q67 0 108 34.5t41 79.5q0 8 -1.5 17t-8 25.5t-18 28.5t-34 21t-53.5 9q-30 0 -61.5 -7.5t-50 -15.5t-51.5 -25q-39 -19 -63 -29t-67.5 -20t-88.5 -10q-88 0 -146 50.5t-58 127.5q0 37 16 71.5t46.5 63.5t81 46.5t114.5 17.5
q41 0 84.5 -8.5t70 -17t74.5 -25.5q93 -33 146 -44q14 11 14 26q0 18 -12.5 39t-25 34.5t-36.5 38.5l-4 3l38 38l4 -3q28 -29 43 -46t31 -46.5t16 -57.5q0 -18 -8 -36q30 -3 61 -3h1q46 0 76.5 23t30.5 58q0 21 -8 41.5t-26.5 43.5t-32.5 38t-42 42l-8 8q-19 -17 -59 -57
l-38 38q29 29 44.5 43.5t43 36t51 32t57 19.5t72.5 11v160q-65 -8 -121 -39l-16 -9l-14 11q-27 21 -46.5 30t-44.5 9q-20 0 -40.5 -8.5t-33.5 -17.5t-36 -27q-54 -43 -86 -53l-9 -2h-69l-105 -105l-38 38l67 67h-162v54h303q22 8 66 43q27 21 42.5 31.5t44 22t56.5 11.5
q57 0 111 -40q84 40 158 40h27v-323h-54v53q-74 -4 -127 -37l2 -2q31 -30 47 -47t37.5 -45t31 -55t9.5 -56q0 -45 -29.5 -79.5t-78.5 -48.5v-61h54v54h54v-54h54v-54h-54v-53h-54v53h-54q-22 0 -37.5 16t-15.5 38v54q-55 0 -112 10.5t-89 20.5t-85 29q-45 16 -70 24t-65 16
t-76 8q-99 0 -151.5 -42.5t-52.5 -102.5q0 -55 42 -89.5t108 -34.5q18 0 34 1q31 33 31 68q0 21 -20 45t-38 36l31 45q8 -6 17.5 -14t26 -25.5t27 -40.5t10.5 -46q0 -27 -11 -52q31 10 87 37q36 18 57 26.5t57.5 17.5t72.5 9q82 0 125.5 -45.5t43.5 -109.5q0 -66 -56 -117
t-147 -51zM531 495l-38 38l138 138l38 -38zM404 513l-38 39l153 153l38 -39zM686 732l44 32q-34 37 -68 29q-8 -2 -17.5 -8.5t-14.5 -11.5l-5 -5q42 -22 61 -36z" />
    <glyph glyph-name="horse" unicode="&#xe634;" 
d="M776 249q24 144 83 257l7 13h-597q-25 0 -39 -30t-14 -62q0 -39 12.5 -73t57.5 -103l84 -129l129 127h277zM1024 896v-404q0 -135 -92 -135h-14l-78 109q-34 -75 -54 -163h115q27 0 48 -21t21 -48t-19.5 -68t-33 -61.5t-24.5 -34.5l-43 32q24 32 45 71.5t21 60.5
q0 5 -5 10t-10 5h-125q-21 -129 -21 -323h-54q0 213 25.5 352t85.5 253l20 38l113 -157q25 8 25 80v404h54zM862 734h54v162h-54v-81q-31 27 -81 27h-134v-54h134q26 0 53.5 -21t27.5 -33zM755 734h-216v-54h162zM301 129l100 -149h64l-95 142l129 127h168q4 27 9 54h-199z
M411 314l-38 38l-132 -131q-49 75 -64 116.5t-15 89.5q0 57 29 101.5t78 44.5h324l54 54h-378q-9 0 -19 -2q-38 55 -89 55q-46 0 -83.5 -38.5t-57.5 -96.5t-20 -118q0 -105 49 -203l-43 -52l42 -34l66 79l-9 17q-51 93 -51 193q0 75 33 137.5t74 62.5q17 0 35 -21
q-40 -24 -64 -72t-24 -107t19 -109.5t74 -134.5l-55 -55l135 -202h65l-130 195z" />
    <glyph glyph-name="monkey" unicode="&#xe637;" 
d="M758 411h-192q-34 0 -57.5 -23.5t-23.5 -57.5v-215q0 -49 77 -140l41 -49h152q15 19 45 58q62 79 62 194q0 111 -104 233zM539 -128h-54q0 28 21 60t56 43q-77 91 -77 140q0 33 23.5 56.5t57.5 23.5h81v-54h-81v0q-11 0 -19 -7.5t-8 -18.5q0 -16 26 -55t66 -80h89
q11 8 22.5 20t28.5 35.5t27 61t10 81.5q0 32 -11 65t-25 58t-41 57.5t-43.5 50t-47.5 48.5q-32 33 -47 49t-31 39t-20 41q-14 51 -27 148h-138q-83 0 -122 -54h176v-53q-27 0 -48 -12.5t-32 -30.5t-17.5 -42t-8.5 -41.5t-2 -35.5v-54h54v-162h-54v108h-27q-48 0 -84.5 10.5
t-55.5 25t-30.5 34.5t-14.5 35t-3 30q0 35 56 94q4 21 9 41h-11v53h31q53 108 184 108h186l3 -24q14 -113 28 -164q3 -12 17 -31t27.5 -33t40.5 -41q33 -34 51 -53t47.5 -55.5t45 -65t27.5 -67t12 -76.5q0 -115 -62 -194q79 15 124.5 78.5t45.5 159.5q0 43 -14 85t-28 66
t-42 65q-26 37 -38.5 58.5t-26 58.5t-13.5 72q0 42 14.5 74.5t39 51t51.5 27t57 8.5v-54q-12 0 -24 -1.5t-28 -8t-27.5 -17.5t-20 -32t-8.5 -48.5t11 -57t22.5 -48t34.5 -53.5q23 -33 34.5 -52.5t28 -52.5t24 -67.5t7.5 -73.5q0 -133 -74.5 -214.5t-194.5 -81.5h-162
q-25 0 -39.5 -20t-14.5 -34zM229 627q-9 -29 -14 -59l-1 -8l-6 -6q-17 -18 -31 -36.5t-15 -26.5q0 -71 107 -79v53q0 102 47 162h-87zM323 -128h-54q0 28 21 60t57 43q-78 91 -78 140q0 33 24 56.5t57 23.5h45q22 45 72 76.5t99 31.5h135v-54h-135q-56 0 -95.5 -39.5
t-39.5 -94.5v-27h-54v27q0 13 2 26h-29q-11 0 -19 -7.5t-8 -18.5q0 -16 26.5 -55t66.5 -80h15v-54h-54q-24 0 -39 -20t-15 -34z" />
    <glyph glyph-name="ox" unicode="&#xe63a;" horiz-adv-x="1025" 
d="M540 141h216q27 0 54 -4q42 -7 79 -26t53.5 -32.5t28.5 -27.5v-71h54v280l-8 8q-35 36 -44 197h-433q-67 0 -114 -47.5t-47 -114.5v-131q65 -31 161 -31zM1025 260v-280h-54v71q-12 14 -28.5 27.5t-53.5 32.5t-79 26v-157h-54v161h-108v-215h-54v269h162q122 0 215 -72
v116q-50 66 -53 280h-216q-36 0 -70.5 8.5t-53.5 17t-52 25.5q-13 7 -27 14q-40 -39 -115 -55q50 -48 106 -73l-22 -49q-86 39 -151 113q-18 -1 -33 -1h-1q-62 0 -122 16l-93 -187l68 -53q90 62 189 62v-54q-43 0 -87.5 -17t-60.5 -28.5t-23 -17.5l-17 -14l-137 107l110 220
q-109 49 -109 143q0 39 19 69t47 46t53 23.5t43 7.5v-54q-8 0 -23.5 -4t-35.5 -13.5t-34.5 -29t-14.5 -45.5q0 -32 22.5 -57t58 -39t73.5 -20.5t75 -6.5q102 0 158 35q-73 25 -169 19l-4 53q120 8 212 -28q5 14 5 28t-6 27t-13.5 21.5t-17.5 15.5t-14 9.5t-7 3.5l22 49
q5 -2 11.5 -5.5t21.5 -15t27 -25t21 -35t9 -45.5q0 -27 -10 -51q9 -4 21 -11q31 -16 47.5 -23.5t45 -14.5t58.5 -7h269v-27q0 -61 4 -110.5t9.5 -77.5t12.5 -49t11.5 -28.5t8.5 -12.5zM296 235l-99 -118l87 -138l46 29l-66 104l37 45q87 -69 239 -69v53q-150 0 -223 73z" />
    <glyph glyph-name="rabbit" unicode="&#xe63c;" 
d="M681 407q-27 13 -54 24q-27 -20 -61 -20h-81q-28 0 -58.5 -20t-45.5 -48q-24 -42 -32.5 -69t-4 -59t25.5 -74q19 -37 29 -60.5t21 -67.5t11 -87h339l68 139q24 49 24 110q0 25 -7 51t-24.5 58.5t-56 65t-93.5 57.5zM862 175q0 -61 -24 -110l-68 -139h-285v54h48
q-48 68 -48 135q0 89 63 152l38 -38q-19 -20 -33 -53.5t-14 -60.5v0q0 -66 63 -135h134l54 109q18 38 18 86q0 61 -46 111.5t-132 84.5q-29 -14 -64 -14h-81q-12 0 -30 -11.5t-27 -28.5l-47 26q15 28 45.5 48t58.5 20h81q26 0 43 9t36 27q-14 81 -61.5 130.5t-98.5 49.5
h-108l-6 -2q-31 41 -69 77q-61 59 -95 79q-10 7 -22 7v0q-10 0 -17 -7q-15 -15 2 -39q21 -32 83 -91q34 -32 78 -63q-44 -53 -79.5 -132t-35.5 -153q0 -35 8 -69t16.5 -53.5t26.5 -53.5q18 -38 27.5 -59.5t19 -61t9.5 -80.5h-54q0 35 -8 69t-16.5 53.5t-26.5 53.5
q-18 38 -27.5 60t-19 61.5t-9.5 79.5q0 65 26 139.5t67 135.5q-20 16 -39 34q-66 63 -91 99q-18 27 -17 56.5t21 50.5t50 23.5t57 -14.5q38 -23 103 -86q30 -28 57 -61h69q-37 50 -89 100q-54 52 -84 74l34 42q32 -24 88 -77q80 -77 121 -147q63 -20 108.5 -83t56.5 -148
l2 -13l-9 -9l-12 -12q55 -25 93.5 -57.5t56 -65t24.5 -58.5t7 -51zM309 141l12 -24q19 -36 28 -57t18.5 -58.5t9.5 -75.5h54q0 43 -11 87t-21 67.5t-29 60.5h-61zM907 88q-5 -15 -13 -32l-64 -130h60l52 106q15 30 22 56h-57zM515 505.5q0 44.5 -30 44.5t-30 -44.5t30 -44.5
t30 44.5z" />
    <glyph glyph-name="rat" unicode="&#xe63e;" 
d="M728 465q-100 0 -168.5 -37t-117.5 -118q-13 -21 -14.5 -52t4.5 -44q5 -14 13 -26q32 -47 94 -47h67q2 -29 -15 -54q-16 -22 -57 -54q38 1 84 1q75 0 136 16.5t100.5 45t66 66.5t38 78.5t11.5 84.5q-13 22 -23.5 37.5t-31.5 36.5t-45 34t-61 22.5t-81 9.5zM210 -117
l-43 32q33 45 63 74t63 49.5t77 30.5t94.5 14t126.5 4q14 22 15 44.5t-6 45.5q-7 35 -7 55q0 48 16 79t47 58l35 -41q-24 -21 -34 -41t-10 -55q0 -15 6 -44q13 -62 -1 -99q125 7 194.5 69.5t69.5 166.5q0 114 -62 181t-169 67q-91 0 -174 -40q-9 -17 -21 -31l-42 34l21 -17
l-21 17q37 48 37 97q0 53 -27 77q-26 25 -81 25v-162h-54v213l25 2q98 8 147 -38q44 -41 44 -117q0 -16 -3 -32q75 26 149 26q130 0 207.5 -82.5t77.5 -219.5q0 -44 -11.5 -84.5t-38 -78.5t-66 -66.5t-100.5 -45t-136 -16.5q-83 0 -134 -3.5t-93 -11.5t-71.5 -26.5t-54 -43
t-55.5 -66.5zM230 140q-18 0 -37 2l-23 1l-2 22q-6 63 -6 100q0 126 54 259v264h53v-275l-2 -4q-26 -65 -38.5 -120.5t-12.5 -123.5q0 -28 3 -71q149 -4 223 116l48 -24q-17 -43 -1 -67t50 -24v-54q-62 0 -94 47q-8 12 -13 26q-80 -74 -202 -74zM380 370.5
q0 44.5 -29.5 44.5t-29.5 -44.5t29.5 -44.5t29.5 44.5z" />
    <glyph glyph-name="rooster" unicode="&#xe640;" 
d="M892 390q-30 104 -30 183v207l-323 -196v-11q0 -79 29 -183q25 -88 25 -141q0 -73 -48.5 -127.5t-119.5 -76.5l5 -11h216q41 0 58 2q85 10 148.5 69.5t63.5 143.5q0 53 -24 141zM673.5 542q-29.5 0 -29.5 44.5t29.5 44.5t29.5 -44.5t-29.5 -44.5zM540 -74l-50 108h156
l50 -108h60l-52 110q85 10 148.5 69.5t63.5 143.5q0 53 -24 141q-30 104 -30 183v215q0 45 -31.5 76.5t-75.5 31.5t-76 -31t-32 -75q-12 3 -24 3q-37 0 -63 -26t-26 -62q0 -27 11 -54l-100 -60l94 -15v-57q0 -11 -6 -19.5t-27 -29.5l-12 -12q-77 89 -138.5 129t-139.5 40
q-89 0 -152.5 -63.5t-63.5 -152.5v-162h54v162q0 67 47.5 114.5t114.5 47.5q62 0 113.5 -33t126.5 -120l-38 -38q-40 42 -76.5 62.5t-81.5 20.5q-63 0 -107.5 -44.5t-44.5 -107.5v-172h54v172q0 41 28.5 69.5t69.5 28.5q34 0 64 -18.5t73 -67.5l19 -22l128 128
q18 19 26 28.5t15.5 25.5t7.5 34v98l23 14l-14 23q-14 22 -14 51q0 14 10 24t25 10q24 0 39 -18l27 -46l39 24l-20 49q-7 17 -7 40t15.5 38.5t38 15.5t38 -15.5t15.5 -38.5v-215q0 -86 32 -198q22 -80 22 -126q0 -68 -59 -114.5t-129 -46.5h-210l-68 145q-16 33 -42 51.5
t-58 18.5q-33 0 -56.5 -23.5t-23.5 -57.5v-188h53v188q0 11 8 19t19 8q33 0 51 -39l134 -284h59z" />
    <glyph glyph-name="snake" unicode="&#xe645;" 
d="M108 106q0 25 11 44t29.5 28.5t38.5 14t42 4.5q35 0 79 -11.5t74 -23.5t85 -36q104 -45 162 -63q-82 -70 -195 -83q-47 -5 -89.5 -6t-87 5t-76.5 20t-52.5 41t-20.5 66zM377 680q-22 0 -43 -9q-11 -35 -11 -71v0q0 -34 9.5 -63.5t21 -49t33.5 -41t35.5 -31.5t38.5 -28
q15 -11 24 -17v203q0 44 -31.5 75.5t-76.5 31.5zM672 107q72 -19 136 -19q67 0 114.5 39.5t47.5 95t-47.5 95t-114.5 39.5q-26 0 -54 -4q-1 130 -79 220h-1h-1q-39 0 -78 1q109 -85 106 -232v-0.5v-0.5q-48 -15 -96 -45q-5 22 -15 42q-10 18 -28 36.5t-31.5 28.5t-38.5 28
q-29 21 -44 33t-34.5 33t-28 46t-8.5 57q0 62 32.5 106t80 63t103.5 19q94 0 214 -38q-4 -29 -27.5 -47t-78.5 -22v53h-54v-53q-70 1 -105 5l-6 -54q53 -5 138 -5q188 0 188 143v19l-18 6q-141 47 -251 47q-119 0 -194.5 -67.5t-75.5 -174.5q0 -34 9.5 -63.5t21 -49
t33.5 -41t35.5 -31.5t38.5 -28q22 -16 33.5 -24.5t26 -22.5t21.5 -28q14 -25 13 -47q34 -15 62 -26q94 64 191 64q45 0 76.5 -23.5t31.5 -57t-31.5 -57.5t-76.5 -24q-49 0 -106 14.5t-92.5 28t-98.5 41.5q-63 27 -97 40.5t-86.5 26.5t-98.5 13q-80 0 -127.5 -37t-47.5 -100
q0 -59 45 -97.5t114 -38.5q51 0 96 10.5t84 32t65.5 39.5t61.5 48q53 -23 95 -37q-75 -79 -187 -92l5 -53q23 4 51.5 1.5t43 -3t37 -6.5t33 -9t31.5 -10q31 -10 49 -15t51.5 -10.5t69.5 -5.5q31 0 66 4l-5 54q-31 -3 -58.5 -3t-46 1.5t-41 6.5t-34.5 8.5t-34 11.5
q-45 14 -71 20q24 13 52 37t45 45zM213 86q-42 0 -73.5 21.5t-31.5 60.5q0 43 35.5 63t85.5 20q53 0 107 -16.5t128 -48.5q-59 -48 -117 -74t-134 -26z" />
    <glyph glyph-name="tiger" unicode="&#xe646;" 
d="M431 734v27q0 31 -25 56t-56 25q-28 0 -58 -5l-23 -3v-84q-44 -28 -80 -65t-59.5 -76t-38.5 -74t-24 -70h266q120 0 214.5 -33.5t148 -95t53.5 -141.5q-32 54 -89 54q-51 0 -86 -46.5t-35 -114.5q0 -84 61 -157q16 -19 59 -58q2 -1 7 -1h8q79 0 146.5 33t111 86.5
t68 120.5t24.5 137q0 77 -26.5 146t-72 120t-104.5 92t-126 67.5t-133.5 41.5t-130.5 18zM674 -128q-54 0 -105 11t-78 21.5t-71 30.5q-35 16 -54 23.5t-49 14.5t-58.5 7t-58 -14t-45.5 -31l-40 36q23 25 62.5 44t80.5 19q46 0 84.5 -11.5t88.5 -33.5v233q0 42 -30 81
q-24 -15 -51 -27l-22 50q41 17 71 44t46 53t25.5 57t12 52t2.5 41v101q-40 6 -81 6h-27v81q0 9 -9 18t-18 9q-12 0 -27 -1v-160h-54v57q-38 -29 -68 -67.5t-46.5 -72t-27.5 -69.5t-14 -54t-5 -33q16 -15 72 -38l38 59l13 2q64 8 105 57t41 105h54q0 -71 -50 -135t-131 -79
l-48 -75l-20 7q-37 14 -62.5 27t-38 22.5t-19 19.5t-7.5 14.5t-1 9.5q0 18 5 46.5t20 72t37.5 85t62.5 86t90 76.5v84l23 3q30 5 58 5q31 0 56 -25t25 -56v-27q64 -3 130.5 -18t133.5 -41.5t126 -67.5t104.5 -92t72 -120t26.5 -146q0 -70 -24.5 -137t-68 -120.5t-111 -86.5
t-146.5 -33zM660 195q-27 0 -47 -32t-20 -75q0 -30 10.5 -58.5t27 -49.5t28.5 -33t23 -21q131 4 214 108h-195v54h230q13 25 22 53h-240l-6 18q-2 5 -5.5 11t-15 15.5t-26.5 9.5zM485 -35q60 -25 115 -34q-61 73 -61 157q0 68 35 114.5t86 46.5q57 0 89 -54h217q4 27 4 54
q0 57 -16 108l-127 -127l-38 38l143 143q-23 45 -58 82l-154 -155l-38 38l153 154q-38 32 -82 56l-141 -140l-38 38l128 128q-79 35 -163 53v-92q0 -24 -3.5 -48.5t-12.5 -58t-29.5 -68t-50.5 -62.5q42 -53 42 -114v-257zM216 465v54q27 0 40 16t13 38h54q0 -44 -28.5 -76
t-78.5 -32z" />
    <glyph glyph-name="boar" unicode="&#xe648;" 
d="M732 519q-83 0 -147.5 -28.5t-134.5 -98.5l-270 -270q37 -16 87 -24t92 -9t126 -1h96q88 53 227 53h122l40 74v108q0 46 -37 92t-92.5 75t-108.5 29zM808 195v-54q-147 0 -235 -58.5t-88 -156.5h-54q0 123 103 196t274 73zM485 88v53q-75 0 -109 1t-79.5 5.5t-75 15
t-56.5 28.5l-6 4h-78q-26 0 -27 27v83q68 9 115 58t47 129v188h-54v-161h-27q-54 0 -94.5 -29t-40.5 -79h54q0 28 26 41t55 13h24q-8 -52 -46.5 -80t-85.5 -28h-27v-135q0 -29 20.5 -55t60.5 -26h62q46 -28 105 -41q-13 -22 -22.5 -57t-9.5 -62v-1h53q0 62 40 112
q53 -4 176 -4zM412 430l-89 -89v124h-54v-254l181 181zM323 734h-54v-190q26 26 54 49v141zM647 788q-102 0 -216 -58v58h-54v-154q145 100 270 100q111 0 190 -79t79 -190v-236l-106 -195h61l99 181v250q0 88 -43.5 162.5t-118 117.5t-161.5 43z" />
    <glyph glyph-name="-pk" unicode="&#xe658;" 
d="M512 895q-104 0 -198.5 -40.5t-163 -109t-109 -163t-40.5 -198.5t40.5 -198.5t109 -163t163 -109t198.5 -40.5t198.5 40.5t163 109t109 163t40.5 198.5t-40.5 198.5t-109 163t-163 109t-198.5 40.5zM702 421q1 -2 1 -5q0 -4 -4 -9q-6 -9 -7 -9q-2 -21 -5 -137q6 -3 15 -4
l16 -4q3 -3 3 -8q0 -2 -1 -6.5t-1 -5.5q-1 -3 -5 -4q-55 4 -124 0q-5 2 -5 8q0 2 1 7t1 8q4 2 12.5 3.5t12 3.5t3.5 5q4 64 4 82t-2 34q-4 5 -13 6q-13 2 -16 3q-2 3 -2 6q0 2 1.5 6.5t1.5 6.5q21 4 55 8q48 7 56 8q1 -1 2 -3zM535 570v60h149v-60h-57v-78h-39l6 20v58h-59z
M574 560l-17 -68h-32l17 68h32zM693 492h-31l-17 68h31zM594 654l28 14v-14h-28v0zM524 652h171v-14h-171v14zM435 652l39 10v-31h34v-13h-34v-112h34v-14h-73v160zM336 506h36v112h-36v13h36v21l37 10v-170h-73v14zM191 265q1 -2 4 -3.5t4 -2.5q10 -1 45 -7q1 -3 1 -6v0
l-5 -16q-1 -1 -3 -2t-4 -1q-25 2 -70 2q-51 -1 -71 0q-2 4 -2 10q0 7 2 14l12 4t7 7q1 27 1 65q1 32 1 64q-3 3 -13 5q-8 2 -10 7v6q-1 6 -1 7q0 6 4 7q62 -4 161 0q26 -3 36 -14q13 -16 13 -41q0 -20 -8 -37q-12 -26 -44 -33q-11 -3 -58 -5q-4 -6 -4 -14q0 -7 2 -16z
M280 101v65h9v-57h33v-8h-42zM384 112q-8 -12 -24.5 -12t-25.5 11q-7 10 -7 23t7 22q8 12 24.5 12t25.5 -12q7 -9 7 -22t-7 -22zM427 102h-9v57h-22v8h52l1 -8h-23zM482 102h-9v57h-22v8h53v-8h-22v-57zM513 102v65h48v-8h-39v-20h36v-7l-36 -1v-21h39v-8h-48zM565 229.5
q-1 -0.5 -2 -0.5q-33 5 -82 0q-15 33 -44 86l-6 3q-2 0 -2.5 -0.5t-2.5 -5.5q-1 -13 -1 -26q-1 -15 1 -25q3 -4 14 -5q10 -1 11 -8q0 -16 -5 -19q-34 2 -116 0l-4 4v11q1 7 7 8q10 4 12 9q6 83 3 134q-2 3 -10.5 4.5t-11.5 5.5v5v6q0 7 4 8q1 0 1 1q26 -1 52 -1q33 0 66 3
q4 -3 4 -8q0 -2 -1 -7t-2 -6q-2 -4 -10.5 -6.5t-10.5 -6.5l-2 -24q-1 -14 0 -23q2 -1 4 -1t6.5 2t5.5 2q25 25 46 50v2t-2 3.5t-2 4.5q-1 13 1 16h21h22h10h6q2 0 6 1.5t5 1.5q3 0 5 -3q1 -3 1 -8t-1 -9q-2 -5 -9 -7q-11 -3 -12 -4q-32 -27 -45 -49q33 -52 63 -91q2 -2 7 -4
t7 -4q0 -4 -2 -10q-3 -7 -4 -9zM616 102l-7 19h-26l-7 -19h-9l25 65h10l23 -65h-9zM678 103q-1 2 -1.5 7t-0.5 9q0 5 -2 8t-9 3h-22v-28h-8l-1 65l31 1q9 0 14 -4q7 -4 7 -14q0 -6 -3 -10q-2 -3 -6 -5q4 -2 5 -4q3 -3 3 -9v-11q0 -3 1 -4.5t3 -2.5v-1h-11zM727 103h-9v26
l-25 39h11l18 -31l19 31h10l-24 -39v-26zM910 243.5q-17 -13.5 -36 -16.5q-23 -4 -42 -4q-55 0 -78 32q-16 27 -16 63q0 42 21 74q19 22 53 27q19 3 64 1q43 -3 63 1h2q1 -2 1 -5t-8 -19q-1 -2 -8 -3q-5 -1 -5 -4q0 -2 1 -3q20 -18 20 -53q0 -24 -10 -60q-5 -17 -22 -30.5z
M217 332q8 10 8 26q0 13 -4 26q-5 8 -13 12q-7 4 -14 0q-2 -13 -2 -34l-1 -35q1 -1 1 -2.5t1 -1.5q15 -2 24 9zM586 129h20l-10 29zM654 616h-89v-33h89v33zM673 158q-3 2 -8 2h-22v-22h21q6 0 9 2q4 3 4 9.5t-4 8.5zM855 379q-6 11 -17 12q-16 -4 -20 -25q-6 -27 -6 -48
q0 -37 16 -62q6 -5 12 -5q7 0 15 10q12 26 12 59q0 19 -4 38zM359 160q-10 0 -16.5 -7.5t-6.5 -19t6.5 -19t17 -7.5t16.5 7.5t6 19.5t-6 19q-7 7 -17 7z" />
    <glyph glyph-name="-kuaile" unicode="&#xe65a;" 
d="M284 371q13 -4 17 0q4 5 16 36.5t13 41.5q-1 1 -2.5 2t-1.5 2q-6 -1 -8 -1q-8 -5 -11 -11q-1 -4 -13.5 -34t-12.5 -33q0 -1 1 -2t2 -1zM790 377q-22 -13 -44 -33t-31 -40q-16 -36 3 -50q20 -11 45.5 -2.5t47.5 27t25 31.5q4 17 -14 41.5t-32 25.5zM512 895
q-104 0 -198.5 -40.5t-163 -109t-109 -163t-40.5 -198.5t40.5 -198.5t109 -163t163 -109t198.5 -40.5t198.5 40.5t163 109t109 163t40.5 198.5t-40.5 198.5t-109 163t-163 109t-198.5 40.5zM97 445q5 10 16.5 12.5t23 -3.5t16 -18t-0.5 -22t-16.5 -12.5t-23 4t-16 18
t0.5 21.5zM124 312q-15 -27 -21 -33q-25 -23 -47 -23l-4 4q2 11 18 37q5 8 19 29t23.5 37t15.5 31q8 1 15 4t13 9t4 19t-13 31q4 10 14 31t14 31q4 6 9 7q37 3 42 -1q-5 -17 -10.5 -29t-7.5 -14.5t-4 -9t0 -11.5h1v0q1 -2 9 -12t3 -17q-4 -6 -18 -9.5t-18 -8.5
q-3 -6 -11 -21.5t-12 -20.5q0 -3 -1.5 -5.5t-3.5 -5t-3 -4.5q-3 -6 -12 -21t-14 -24zM337 264q4 6 3 11q-3 4 -10 9.5t-10.5 8.5t-5.5 9t5 11q16 7 30 -6.5t15.5 -32.5t-9.5 -33q-14 -12 -27 -14t-24.5 5.5t-20.5 16.5t-19.5 22t-15.5 18q-7 -1 -12 -4t-9.5 -9t-6.5 -8
q-17 -15 -57 -21q-13 -2 -23 4v5q2 5 12.5 9t12.5 6q13 10 31 30t27 36q5 8 3 12q-7 1 -34 -1.5t-30 2.5q-2 4 0 8q4 9 5 10q6 6 34 3t35 -1q7 6 22.5 37t17.5 47q-1 2 -3 2.5t-7.5 0t-9.5 -0.5q-1 0 -9 -1t-12.5 -1t-9.5 2t-7 6q-1 3 1 6q8 12 18 13t19 -2t22 2
q8 3 16.5 21t16.5 24q20 1 24 -7q2 -9 -3 -21.5t-4 -18.5q7 -4 32 -2t30 -5q2 -18 -20 -51.5t-20 -48.5q1 -1 8.5 -2.5t8.5 -3.5q5 -17 -16.5 -21t-43 -1t-27.5 -6q-5 -19 17 -47t40 -27zM621 232q-10 -3 -20 -0.5t-16 11t-9 18.5t2 20.5t17 17.5q18 2 31 -12t12 -31
t-17 -24zM489 352q16 -8 24.5 1t14.5 29.5t11 26.5q8 5 26 4.5t25 -7.5q0 -2 -8.5 -21.5t-9.5 -27.5q6 -4 39 -3t40 -3q6 -8 3 -29q-10 -4 -46 0t-45 -4q-5 -3 -8.5 -10.5t-7 -17.5t-5.5 -15q-43 -82 -101 -45q-3 5 1 6.5t12 3t11 3.5q6 4 9 16.5t1 21.5q-1 1 -2 1.5t-2 1.5
q-11 3 -22.5 -5t-20 -17.5t-22 -13.5t-27.5 6q0 5 4 9t9.5 7.5t7.5 4.5q2 2 13 16t21.5 19t26.5 1q13 -3 26 -14q3 1 4 2t1.5 4t1.5 5q2 10 1 13q-6 2 -40.5 1.5t-34.5 7.5q0 6 8.5 21.5t17 29t20.5 32t14 20.5q0 1 7 9.5t10 15t1 13.5q-3 12 -24.5 27t-37.5 18
q-5 1 -23 -1.5t-29.5 -4t-16.5 2.5q8 10 24 18.5t31 11.5q16 1 32 -4t21.5 -8t24.5 -14q57 -34 99 -41q17 -5 33 3.5t32 23.5t25 19q2 -23 -34.5 -58.5t-58.5 -25.5q-4 1 -18 3.5t-21.5 3.5t-15.5 0q-6 -3 -11.5 -11.5t-11.5 -20.5l-8 -16q-1 -1 -8.5 -11t-11 -18t-1.5 -16z
M868 407q-14 -12 -22 -6q-1 1 -5 4t-4.5 2.5t-7.5 0.5l1 -3q4 -5 19 -19t20.5 -20.5t13 -21t10.5 -32.5q3 -5 1 -12.5t-2 -11t-4.5 -9.5t-6 -8.5t-6 -7.5t-5.5 -7q-29 -36 -89.5 -45t-100.5 21q-20 16 -21 37t13 41.5t27.5 35t27.5 24.5q1 2 10 7.5t15 10.5t7 10
q1 6 -7 15.5t-19 19t-14 13.5q-38 64 38 102q23 7 33 9q26 3 44 1q19 -2 53 -28q8 -6 12.5 -15.5t-0.5 -21.5q-6 -6 -14.5 -6t-15.5 4q-5 2 -13.5 8.5t-13.5 9.5t-16 5t-21 -4q-22 -9 -29 -24.5t7 -39.5q2 -2 7.5 -8t8.5 -9q2 -2 5.5 -11t6.5 -11q5 -2 13 1q3 15 8 18
q4 3 12.5 0t12.5 -1q8 2 12.5 15.5t7.5 16.5q4 0 14.5 -3.5t13.5 0.5q3 1 8 9.5t14 7.5l0.5 -0.5l1.5 -1.5v-4q-1 -2 -27 -27t-34 -31zM952 490v0q1 2 1 3q1 2 2.5 3.5t5 3.5t5.5 2q3 0 5 -1l1 -1q-11 -15 -20 -10z" />
    <glyph glyph-name="football" unicode="&#xe60e;" 
d="M970 523q-42 124 -141 206q2 1 -4.5 7t-20 14.5t-30 18t-38.5 19.5t-43 17l98 -48q-74 49 -163 62l91 -25q-10 5 -26 10l-24 8q-14 5 -30 8q-12 3 -24 5l-17 2h-2q-3 0 -8.5 1t-7.5 1q-4 1 -8.5 1t-8.5 -1l-19 3h-19q-26 0 -39 -3q-114 -17 -205 -85q-19 -9 -50.5 -41.5
t-56.5 -71.5q-5 3 -14 -8t-19.5 -35t-20 -54.5t-16 -70.5t-6.5 -79q0 -165 107 -290l14 -16q63 -66 147.5 -104t178.5 -38h37q77 7 146 40l-15 -7l18 8q9 4 19 10q70 35 119 94q16 2 36.5 28t40 66t33 96.5t13.5 112.5q0 73 -23 142zM702 732q13 2 27 2q25 0 49 -6
q92 -63 139 -162v7q10 -9 27 -74q7 -29 11 -55q-4 8 -7 13t-6 6t-5.5 1.5t-5.5 -3.5l-4.5 -6t-5.5 -8.5t-5 -9.5l-154 28q-64 134 -184 216zM373 764q79 37 171 37q25 0 50 -3q70 -32 112 -95l-66 -87q-129 -17 -242 -71l-62 106q13 79 59 142zM147 320q-18 -26 -24 -58
q6 46 6 121q0 91 38 173l7 -14l-30 -222h3zM179 331l28 208q68 84 171 113l76 -101q-3 -38 -3 -80t3 -84l-172 -125q-107 53 -173 149zM544 -32q-156 0 -273 103q31 1 59 13l212 -92q14 -29 38 -49zM597 47q-24 -15 -45 -27l-218 87q-36 79 -39 169l177 87q139 -70 301 -82
l-109 -181q-69 -68 -162 -95zM821 73q1 3 1 6.5t-1 7.5v2q-24 1 -48 4q-64 8 -127 34l17 184q162 170 230 394l28 -290q26 -60 26 -129v-7q-39 -147 -163 -233z" />
    <glyph glyph-name="task-long" unicode="&#xe638;" 
d="M800 704h-160q0 53 -37.5 90.5t-90.5 37.5t-90.5 -37.5t-37.5 -90.5h-160q-13 0 -22.5 -9.5t-9.5 -22.5v-704q0 -13 9.5 -22.5t22.5 -9.5h576q13 0 22.5 9.5t9.5 22.5v704q0 13 -9.5 22.5t-22.5 9.5zM512 736q13 0 22.5 -9.5t9.5 -22.5t-9.5 -22.5t-22.5 -9.5t-22.5 9.5
t-9.5 22.5t9.5 22.5t22.5 9.5zM768 0h-512v640h64v-64h384v64h64v-640zM550 429h-64v-179h221v64h-157v115z" />
    <glyph glyph-name="search" unicode="&#xe616;" 
d="M647.5 579q-68.5 68 -164.5 68t-164.5 -68t-68.5 -164.5t68.5 -164.5t164.5 -68t164.5 68t68.5 164.5t-68.5 164.5zM514 881q-101 0 -193 -39.5t-158.5 -106t-106 -158.5t-39.5 -193t39.5 -193t106 -158.5t158.5 -106t193 -39.5t193 39.5t158.5 106t105.5 158.5t39 193
t-39 193t-105.5 158.5t-158.5 106t-193 39.5zM483 110q-126 0 -215 89.5t-89 215.5t89 215t215 89t215 -89t89 -215t-89 -215.5t-215 -89.5zM836 61q-12 -12 -29.5 -12t-29.5 12l-58 59q-13 12 -13 29.5t12.5 29.5t29.5 12v0q17 0 29 -12l59 -59q12 -12 12 -29v0
q0 -17 -12 -30v0z" />
    <glyph glyph-name="slot" unicode="&#xe657;" 
d="M210 535h-23q-25 0 -43 -19.5t-18 -47.5v-179q0 -28 18 -47.5t43 -19.5h23q25 0 43 19.5t18 47.5v179q0 28 -18 47.5t-43 19.5zM239 289q0 -14 -8.5 -24.5t-20.5 -10.5h-23q-12 0 -20.5 10.5t-8.5 24.5v179q0 15 8.5 25.5t20.5 10.5h23q12 0 20.5 -10.5t8.5 -25.5v-179z
M410 535h-23q-25 0 -43 -19.5t-18 -47.5v-179q0 -28 18 -47.5t43 -19.5h23q25 0 43 19.5t18 47.5v179q0 28 -18 47.5t-43 19.5zM439 289q0 -14 -8.5 -24.5t-20.5 -10.5h-23q-12 0 -20.5 10.5t-8.5 24.5v179q0 15 8.5 25.5t20.5 10.5h23q12 0 20.5 -10.5t8.5 -25.5v-179z
M610 528h-23q-25 0 -43 -20t-18 -48v-179q0 -28 18 -47.5t43 -19.5h23q25 0 43 19.5t18 47.5v179q0 28 -18 48t-43 20zM639 281q0 -14 -8.5 -24.5t-20.5 -10.5h-23q-12 0 -20.5 10.5t-8.5 24.5v179q0 15 8.5 25.5t20.5 10.5h23q12 0 20.5 -10.5t8.5 -25.5v-179v0zM928 608
q-26 0 -44.5 -18.5t-18.5 -44.5q0 -36 32 -54l-46 -142h-19v144q0 20 -14 34t-34 14h-7v67v1q0 19 -13.5 33t-32.5 14h-652q-19 0 -33 -14t-14 -33v-1v-448q0 -20 14 -34t33 -14h652q19 0 32.5 14t13.5 34v67h7q20 0 34 14t14 34v42h42l54 164v0q26 1 44 19.5t18 44.5
t-18 44t-44 19v0zM746 160q0 -7 -4.5 -11.5t-10.5 -4.5h-652q-7 0 -11.5 4.5t-4.5 11.5v0v448q0 7 4.5 11.5t11.5 4.5h652q6 0 10.5 -4.5t4.5 -11.5v-448zM800 275q0 -6 -4.5 -11t-11.5 -5h-7v250h7q7 0 11.5 -5t4.5 -11v-218zM928 513q-12 1 -20.5 10t-8.5 21.5t8.5 22
t20.5 9.5q13 0 21.5 -9.5t8.5 -22t-8.5 -21.5t-21.5 -10v0z" />
    <glyph glyph-name="sd11x5" unicode="&#xe604;" horiz-adv-x="1026" 
d="M1023 607q-10 -31 -40 -42q-8 -4 -23 -4q-14 0 -26 5q-15 6 -26 19q-201 82 -359 4q4 4 10.5 11.5t29.5 27.5t48 36t64 32t79.5 22.5t93 0t105.5 -29.5q21 -6 33.5 -23.5t12.5 -39.5q0 -10 -3 -19h1zM634 704v0q-11 -9 -25 -12q-38 -24 -64 -59.5t-36 -68.5t-14.5 -62.5
t-3.5 -47.5l1 -18q-28 47 -40 92t-8.5 80t14.5 67t27 54t31.5 38.5t25.5 24t11 8.5q18 17 43 17q10 0 19 -3q18 -5 29.5 -19t14.5 -32q1 -3 1 -9q0 -31 -25 -50h-1zM408 644q-7 -46 -0.5 -85.5t20 -63t28 -40.5t25.5 -23l11 -7q-44 16 -78.5 44t-52 56t-29 54.5t-14.5 42.5
l-2 17q-3 7 -3 15q0 20 14 34t34 14t33.5 -14t13.5 -34q0 -5 -1 -10h1zM321 510q20 -27 43 -47t42.5 -29t35.5 -14.5t25 -5.5l9 -1q-42 -4 -78.5 1.5t-61 19t-37.5 23.5t-22 20q-9 8 -9 21q0 4 1 8q7 20 27 20q18 0 25 -16v0zM156 74l32 178q-29 -14 -62 -15l16 32
q52 5 80 42h41l-41 -237h-66zM8 269q53 5 80 42h41l-41 -237h-66l32 178q-29 -14 -62 -15zM269 168l34 91h-22l3 25h84l-33 -84h21l-34 -105h108q4 -8 14 -22h-186l31 95h-20zM753 245q25 -27 17 -70q-8 -52 -52 -80q-33 -25 -90 -25q-102 0 -89 72q2 11 7 25l40 8
q-11 -27 -12 -58q-2 -3 2 -7.5t14.5 -8.5t25.5 -4q56 0 70 81q10 58 -37 58q-29 0 -57 -31l-33 8l57 162h173l-23 -63h-140l-22 -64q39 24 78 24q46 0 71 -27zM500 73q-44 23 -73 62l85 -40l-3 -22h-9zM303 300l4 52h64l-4 -52h-64zM537 286h-43l-8 -52h47l-3 -22h-22
l-13 -82h22l-4 -23h-63q-79 67 -125 158l125 -53h-7l-25 -76l-17 17q4 -13 13 -30l-5 -16h-57l34 105h-18l4 22h53l7 52h-11l-8 -37h-43l19 92h43l-6 -32h10l6 42h61l-6 -42h43zM549 42q38 -12 80 -12q70 0 130.5 32.5t97.5 89.5l1 1q28 43 28 96q0 60 -35.5 107.5
t-91.5 64.5q-26 9 -55 9q-26 0 -52 -8q-25 -8 -35.5 -8.5t-28.5 4.5q-37 12 -53 48q-7 11 -7 33q0 27 15.5 49t40.5 31v0q49 18 105 18q48 0 94 -14q96 -30 157.5 -112.5t61.5 -185.5q0 -49 -15 -94q-30 -96 -112 -157t-186 -61q-48 0 -94 14q-63 20 -112.5 63.5
t-77.5 103.5q75 -103 177 -120zM101 326h-81v0q-4 0 -6.5 2.5t-2.5 6.5v0v108h34v-104q0 -3 3 -3h10v132h37v-132h12zM107 443h35v-108v0q0 -9 -9 -9v0h-26v117zM211 402v32h36v-32h44l-6 -10h-38v-57q0 -3 -2.5 -6t-6.5 -3v0h-36l-6 11h12q3 0 3 3v52h-55v10h5l13 39h-21
v10h24l5 13q1 4 6 4h28l-5 -17h82v-10h-86l-13 -39h17zM197 382l-9 -48q-1 -4 -4 -6q-2 -2 -5 -2v0h-25l10 49q1 3 4 5q2 2 5 2h24zM293 326h-24v0q-3 0 -6 2q-3 3 -3 6l-8 48h24q4 0 6 -2q3 -3 4 -7z" />
    </font>
</defs>
</svg>
